<svg width="2572" height="1490" viewBox="0 0 2572 1490" fill="none" xmlns="http://www.w3.org/2000/svg">
<path d="M0 1340.04V1041.08C122.799 1012.81 390.887 1003.23 534.768 1041.08C720.155 1089.84 1537.99 1144.44 1599.55 1149.21C1654.22 1153.45 2270.59 1167.59 2571.64 1149.21V1342.16C2260.29 1314.6 1625.7 1236.82 1549.64 1240.39C1459.32 1244.63 1301.4 1265.37 1209.77 1278.55C1136.09 1289.15 371.565 1322.37 0 1340.04Z" fill="#45BAF1" fill-opacity="0.36"/>
<path d="M0 65.7299L589.434 1316.72L404.047 1316.72L0 65.7299Z" fill="#78D6FF" fill-opacity="0.34"/>
<path d="M38.028 38.1658L1000.61 1300.34H820.557L38.028 38.1658Z" fill="#78D6FF" fill-opacity="0.34"/>
<path d="M320.861 0L2569.27 1017.59L2571.64 1149.21L320.861 0Z" fill="#78D6FF" fill-opacity="0.34"/>
<path d="M99.8234 42.4064L1523.5 1246.75L1192.95 1298.26L99.8234 42.4064Z" fill="#78D6FF" fill-opacity="0.34"/>
<path d="M195.176 25.4438L2569.27 1399.41L2131.94 1489.49L195.176 25.4438Z" fill="#78D6FF" fill-opacity="0.34"/>
<path d="M2.37675 1489.49V1339.38C405.27 1301.54 1004.84 1312.33 1373.05 1258.83C1751.02 1203.91 2238.37 1339.38 2569.27 1339.38V1489.49H2.37675Z" fill="#F9D984"/>
<path d="M1033.89 1348.26C1033.89 1350.45 1028.57 1352.23 1022 1352.23C1015.44 1352.23 1010.12 1350.45 1010.12 1348.26C1010.12 1346.06 1015.44 1344.28 1022 1344.28C1028.57 1344.28 1033.89 1346.06 1033.89 1348.26Z" fill="#E5AD5E"/>
<path d="M777.197 1369.46C777.197 1371.66 771.876 1373.44 765.313 1373.44C758.75 1373.44 753.429 1371.66 753.429 1369.46C753.429 1367.27 758.75 1365.49 765.313 1365.49C771.876 1365.49 777.197 1367.27 777.197 1369.46Z" fill="#E5AD5E"/>
<path d="M1191.16 1385.82C1115 1389.68 949.58 1471.02 884.523 1489.49H1734.44H2569.27V1340.04C2491.51 1370.56 2516.9 1400.28 2288.41 1414.74C2240.9 1417.74 1879.02 1378.59 1824.28 1378.59C1769.54 1378.59 1581.51 1402.69 1526.76 1402.69C1495.46 1402.69 1286.37 1381 1191.16 1385.82Z" fill="#FBA55C"/>
<path d="M1081.42 1337.92C1081.42 1341.44 1072.91 1344.28 1062.41 1344.28C1051.91 1344.28 1043.39 1341.44 1043.39 1337.92C1043.39 1334.41 1051.91 1331.56 1062.41 1331.56C1072.91 1331.56 1081.42 1334.41 1081.42 1337.92Z" fill="#E5AD5E"/>
<path d="M1030.72 1327.32C1030.72 1329.66 1025.04 1331.56 1018.04 1331.56C1011.04 1331.56 1005.36 1329.66 1005.36 1327.32C1005.36 1324.98 1011.04 1323.08 1018.04 1323.08C1025.04 1323.08 1030.72 1324.98 1030.72 1327.32Z" fill="#E5AD5E"/>
<path d="M555.367 1361.25C555.367 1363.59 549.692 1365.49 542.691 1365.49C535.69 1365.49 530.015 1363.59 530.015 1361.25C530.015 1358.9 535.69 1357 542.691 1357C549.692 1357 555.367 1358.9 555.367 1361.25Z" fill="#E5AD5E"/>
<path d="M355.72 1390.93C355.72 1393.27 350.045 1395.17 343.044 1395.17C336.043 1395.17 330.368 1393.27 330.368 1390.93C330.368 1388.59 336.043 1386.69 343.044 1386.69C350.045 1386.69 355.72 1388.59 355.72 1390.93Z" fill="#E5AD5E"/>
<path d="M1374.84 1319.61C1374.84 1321.53 1379.48 1323.08 1385.21 1323.08C1390.94 1323.08 1395.58 1321.53 1395.58 1319.61C1395.58 1317.69 1390.94 1316.14 1385.21 1316.14C1379.48 1316.14 1374.84 1317.69 1374.84 1319.61Z" fill="#E5AD5E"/>
<path d="M1342.86 1309.59C1342.86 1311.5 1347.51 1313.06 1353.23 1313.06C1358.96 1313.06 1363.61 1311.5 1363.61 1309.59C1363.61 1307.67 1358.96 1306.12 1353.23 1306.12C1347.51 1306.12 1342.86 1307.67 1342.86 1309.59Z" fill="#E5AD5E"/>
<path d="M1333.36 1330.79C1333.36 1332.71 1338 1334.26 1343.73 1334.26C1349.46 1334.26 1354.1 1332.71 1354.1 1330.79C1354.1 1328.87 1349.46 1327.32 1343.73 1327.32C1338 1327.32 1333.36 1328.87 1333.36 1330.79Z" fill="#E5AD5E"/>
<path d="M1214.52 1314.6C1214.52 1316.94 1220.19 1318.84 1227.19 1318.84C1234.2 1318.84 1239.87 1316.94 1239.87 1314.6C1239.87 1312.26 1234.2 1310.36 1227.19 1310.36C1220.19 1310.36 1214.52 1312.26 1214.52 1314.6Z" fill="#E5AD5E"/>
<path d="M1490.22 1356.23C1490.22 1358.15 1494.86 1359.7 1500.59 1359.7C1506.32 1359.7 1510.96 1358.15 1510.96 1356.23C1510.96 1354.32 1506.32 1352.76 1500.59 1352.76C1494.86 1352.76 1490.22 1354.32 1490.22 1356.23Z" fill="#E5AD5E"/>
<path d="M1761.17 1284.14C1761.17 1286.06 1765.81 1287.61 1771.54 1287.61C1777.27 1287.61 1781.91 1286.06 1781.91 1284.14C1781.91 1282.23 1777.27 1280.67 1771.54 1280.67C1765.81 1280.67 1761.17 1282.23 1761.17 1284.14Z" fill="#E5AD5E"/>
<path d="M1699.38 1330.79C1699.38 1332.71 1704.02 1334.26 1709.75 1334.26C1715.47 1334.26 1720.12 1332.71 1720.12 1330.79C1720.12 1328.87 1715.47 1327.32 1709.75 1327.32C1704.02 1327.32 1699.38 1328.87 1699.38 1330.79Z" fill="#E5AD5E"/>
<path d="M1908.53 1332.91C1908.53 1336 1916.01 1338.5 1925.24 1338.5C1934.47 1338.5 1941.95 1336 1941.95 1332.91C1941.95 1329.82 1934.47 1327.32 1925.24 1327.32C1916.01 1327.32 1908.53 1329.82 1908.53 1332.91Z" fill="#E5AD5E"/>
<path d="M786.704 1349.87C786.704 1352.96 794.185 1355.46 803.413 1355.46C812.641 1355.46 820.122 1352.96 820.122 1349.87C820.122 1346.79 812.641 1344.28 803.413 1344.28C794.185 1344.28 786.704 1346.79 786.704 1349.87Z" fill="#E5AD5E"/>
<path d="M1571.03 1307.71C1571.03 1308.59 1573.16 1309.3 1575.78 1309.3C1578.41 1309.3 1580.54 1308.59 1580.54 1307.71C1580.54 1306.83 1578.41 1306.12 1575.78 1306.12C1573.16 1306.12 1571.03 1306.83 1571.03 1307.71Z" fill="#E5AD5E"/>
<path d="M1533 1309.59C1533 1311.5 1537.65 1313.06 1543.37 1313.06C1549.1 1313.06 1553.75 1311.5 1553.75 1309.59C1553.75 1307.67 1549.1 1306.12 1543.37 1306.12C1537.65 1306.12 1533 1307.67 1533 1309.59Z" fill="#E5AD5E"/>
<path d="M1580.54 1318.07C1580.54 1319.98 1585.18 1321.54 1590.91 1321.54C1596.64 1321.54 1601.28 1319.98 1601.28 1318.07C1601.28 1316.15 1596.64 1314.6 1590.91 1314.6C1585.18 1314.6 1580.54 1316.15 1580.54 1318.07Z" fill="#E5AD5E"/>
<path d="M1537.76 1290.47C1537.76 1293.53 1545.19 1296.02 1554.35 1296.02C1563.51 1296.02 1570.94 1293.53 1570.94 1290.47C1570.94 1287.4 1563.51 1284.91 1554.35 1284.91C1545.19 1284.91 1537.76 1287.4 1537.76 1290.47Z" fill="#E5AD5E"/>
<path d="M1377.61 1301.34C1377.61 1303.38 1382.56 1305.04 1388.67 1305.04C1394.78 1305.04 1399.73 1303.38 1399.73 1301.34C1399.73 1299.29 1394.78 1297.64 1388.67 1297.64C1382.56 1297.64 1377.61 1299.29 1377.61 1301.34Z" fill="#E5AD5E"/>
<path d="M1293.07 1270.05L1292.95 1270.07C1385.64 1265.83 1599.74 1271.73 1609.06 1270.07C1656.59 1261.59 2174.73 1330.96 2193.74 1335.8C2210.38 1340.04 2483.7 1367.61 2569.27 1340.04C2466.27 1332.27 2246.98 1311.63 2193.74 1299.76C2127.19 1284.91 1694.62 1244.63 1587.67 1240.39C1502.16 1237 1355.72 1260.15 1293.07 1270.05Z" fill="#FFEAB4"/>
<path d="M197.027 1323.71C194.925 1315.56 184.383 1296.31 159.038 1284.58C133.693 1272.84 150.464 1264.07 162.017 1261.16C167.283 1260.63 170.623 1256.34 152.527 1235.68C126.458 1205.92 150.173 1204.65 161.64 1201.08C165.507 1199.6 170.238 1194.67 158.225 1186.89C143.209 1177.16 133.171 1155.39 139.91 1152.39C145.668 1149.83 150.789 1153.95 152.467 1155.1C155.765 1156.97 160.159 1157.8 160.365 1145.72C160.625 1130.5 152.032 1117.49 146.65 1111.42C141.429 1105.54 139.33 1102.25 141.384 1094.77C147.506 1072.51 171.328 1062.05 145.404 1027.65C124.665 1000.14 153.177 1021.15 170.026 1035.1C179.593 1042.07 194.671 1064.48 178.447 1098.33C171.132 1113.6 190.686 1121.55 192.277 1122.05C196.328 1123.85 202.953 1130.1 197.051 1140.73C189.674 1154.02 187.851 1157.51 190.455 1159.89C192.539 1161.79 198.074 1161.77 200.582 1161.52C204.507 1160.46 211.756 1161.85 209.349 1175.83C206.942 1189.81 199.416 1202.37 195.954 1206.9C192.521 1211.65 189.161 1220 203.187 1215.42C220.72 1209.71 214.327 1236.11 201.77 1250.58C189.214 1265.04 199.601 1268.63 209.698 1264.32C219.796 1260 220.953 1274.42 212.708 1298.36C206.112 1317.52 219.836 1330.9 227.522 1335.2C223.169 1335.38 215.681 1335.82 208.64 1336.5C203.421 1337.01 198.447 1337.65 195.176 1338.43C196.594 1337.63 198.949 1333.56 197.027 1323.71Z" fill="#41802C"/>
<path d="M2401.79 1338.91C2404.75 1327.28 2419.47 1299.89 2454.65 1283.27C2489.82 1266.65 2466.64 1254.07 2450.66 1249.86C2443.36 1249.08 2455.04 1249.7 2463.95 1213.57C2474.87 1169.3 2467.4 1169.33 2451.53 1164.19C2446.18 1162.05 2439.66 1155.01 2456.35 1143.97C2477.2 1130.16 2477.06 1092.02 2467.74 1087.72C2459.78 1084.05 2466.84 1097.02 2464.51 1098.66C2459.93 1101.31 2453.84 1102.47 2453.62 1085.25C2453.35 1063.54 2472.98 1047.31 2472.82 1036.4C2472.77 1032.52 2475.3 1021.99 2472.5 1011.33C2464.15 979.542 2438.93 965.883 2475.04 916.945C2503.94 877.795 2464.31 907.637 2440.89 927.451C2427.6 937.348 2406.58 969.23 2428.85 1017.59C2438.9 1039.39 2411.76 1050.64 2409.56 1051.35C2403.93 1053.89 2394.72 1062.78 2402.83 1077.97C2412.97 1096.95 2415.48 1101.93 2411.86 1105.31C2408.96 1108.02 2401.29 1107.96 2397.82 1107.59C2392.39 1106.07 2382.34 1108.02 2385.59 1127.97C2388.84 1147.91 2399.19 1165.85 2403.96 1172.33C2408.69 1179.11 2413.3 1191.04 2393.89 1184.45C2369.64 1176.22 2378.34 1213.9 2395.65 1234.59C2412.96 1255.28 2398.55 1260.34 2384.59 1254.15C2370.62 1247.95 2368.93 1268.5 2380.22 1302.69C2389.24 1330.03 2370.15 1349.05 2359.48 1355.14C2365.51 1355.42 2375.88 1356.08 2385.63 1357.09C2392.85 1357.84 2399.74 1358.78 2404.27 1359.9C2402.31 1358.75 2399.07 1352.94 2401.79 1338.91Z" fill="#41802C"/>
<path d="M2344.85 1356.6C2340.16 1349.5 2331.71 1333.15 2335.4 1324.49C2339.09 1315.84 2356.3 1297.18 2364.45 1288.94C2371.12 1281.17 2376.46 1270.37 2342.47 1271.53C2322.31 1272.21 2364.51 1229.38 2368.92 1215.91C2372.49 1204.98 2368.86 1200.51 2367.9 1199.78C2366.23 1196.46 2359.63 1192.11 2346.57 1201.28C2345.41 1202.1 2342.48 1203.48 2340.08 1202.47C2337.08 1201.21 2330.65 1193.93 2344.17 1171.81C2357.69 1149.68 2356.23 1144.82 2353.23 1143.55C2350.23 1142.29 2341.4 1145.12 2332.57 1147.96C2323.74 1150.79 2326.69 1128.98 2331.7 1114.88C2345.25 1076.74 2351.2 1071.71 2362.68 1056.91C2374.17 1042.11 2379.01 1005.87 2355.25 993.923C2352.29 992.352 2346.65 991.878 2347.76 1002.55C2349.15 1015.89 2350.88 1042.47 2319.61 1055.16C2315.93 1056.34 2309.05 1056.68 2310.98 1048.59C2313.38 1038.48 2301.18 1042.84 2297.06 1049.94C2292.94 1057.04 2286.62 1064.85 2298.4 1095.32C2307.82 1119.69 2306.24 1134.16 2304.27 1138.35C2302.77 1141.65 2297.67 1143.49 2289.22 1124.5C2278.65 1100.76 2271.61 1137.71 2277.29 1150.56C2282.96 1163.42 2289.56 1177.31 2298.49 1189.57C2305.63 1199.38 2305.36 1206.64 2304.34 1209.04C2302.84 1212.34 2297.78 1217.01 2289.51 1209.35C2279.17 1199.77 2276.09 1206.98 2275.72 1209.77C2275.34 1212.56 2273.61 1225.57 2282.83 1243.51C2290.21 1257.87 2302.09 1270.69 2307.11 1275.31C2311.43 1279.85 2318.68 1289.92 2313.08 1293.85C2306.09 1298.76 2296.54 1291.15 2289.2 1282.83C2281.86 1274.51 2282.23 1271.72 2276.9 1272.1C2271.57 1272.47 2266.41 1279.46 2267.5 1287.12C2268.59 1294.77 2271.09 1299.75 2282.11 1312.23C2293.12 1324.71 2309.21 1338.67 2306.36 1360.04L2325.6 1358.32L2344.85 1356.6Z" fill="#56A03E"/>
<path d="M368.479 1377.8C378.843 1378.53 383.643 1381.43 386.075 1381.56C386.366 1381.52 386.664 1381.48 386.969 1381.44C399.841 1379.71 425.516 1379.53 411.245 1377.18C396.635 1374.78 402.765 1367.82 407.477 1363.45C420.623 1353.93 421.945 1344.63 417.03 1339.04C401.788 1321.71 404.073 1312.84 406.87 1310.84L407.123 1310.5C414.154 1301.03 424.37 1287.27 408.429 1277.36C392.295 1267.34 393.861 1257.92 396.661 1254.46C399.803 1247.02 406.974 1235.65 400.218 1227.79C391.593 1217.75 389.918 1209 391.501 1204.76C394.65 1197.46 399.669 1179.02 394.548 1163.7C388.148 1144.54 383.199 1144.32 376.65 1126.84C371.411 1112.86 377.257 1102.24 380.836 1098.68C397.654 1082.88 393.736 1070.79 379.767 1078.05C338.549 1099.46 341.182 1133.66 347.65 1148.09C355.844 1157.98 370.361 1184.32 362.876 1210.53C355.391 1236.74 361.764 1260.21 365.886 1268.68C372.768 1277.44 384.587 1297.39 376.81 1307.07C367.09 1319.17 372.557 1345.89 374.734 1348.72C378.011 1352.97 381.771 1362 380.727 1364.55C379.892 1366.59 378.189 1365.49 377.442 1364.69C379.526 1354.99 365.372 1354.12 365.34 1353.49C365.307 1352.87 367.907 1348.58 352.266 1341.71C336.626 1334.83 339.587 1328.45 339.555 1327.82C339.5 1326.76 341.588 1321.68 336.445 1317.71C313.259 1299.84 320.735 1276.28 321.386 1267.58C322.36 1254.6 311.045 1240.44 305.225 1227.94C299.404 1215.44 305.182 1208.94 293.651 1208.79C284.427 1208.67 286.808 1221.95 288.799 1228.62C294.566 1240.08 306.13 1254.07 301.592 1271.32C296.484 1290.75 294.26 1305.32 295.162 1310.64C298.423 1323.67 316.185 1348.79 340.882 1353.45C365.579 1358.12 375.74 1366.64 377.733 1370.31C372.483 1371.85 359.688 1374.23 350.514 1371.44C339.045 1367.94 296.344 1360.72 320.904 1371.82C345.465 1382.92 353.61 1376.74 368.479 1377.8Z" fill="url(#paint0_linear_3150_6829)"/>
<path d="M444.139 1381.67C438.124 1382.06 425.539 1381.22 423.326 1374.8C421.112 1368.37 431.533 1365.27 436.609 1363.39C442.111 1360.66 447.94 1351.52 436.841 1340.62C422.967 1326.99 424.086 1325.9 432.706 1310.71C441.326 1295.53 425.642 1287.82 421.318 1281.53C416.995 1275.23 416.299 1252.7 427.459 1241.17C438.62 1229.64 447.931 1227.8 445.811 1214.1C443.691 1200.41 425.123 1186.97 427.904 1163.46C430.128 1144.66 440.889 1140.23 445.991 1140.37C448.792 1139.98 454.566 1142.48 455.247 1155.65C456.1 1172.12 460.612 1172.98 462.012 1177.3C465.278 1187.4 460.991 1184.83 461.672 1197.99C462.126 1206.75 466.84 1206.97 469.659 1211.45C472.477 1215.93 487.889 1232 462.288 1264.38C456.865 1271.24 456.093 1285.52 463.394 1294.83C466.604 1300.82 477.69 1320.02 465.541 1336.3C450.588 1356.34 452.276 1350.35 450.793 1360.3C449.571 1368.5 455.78 1370.33 460.026 1370.57C464.509 1370.87 475.979 1368.95 485.991 1358.85C498.505 1346.22 488.197 1337.87 490.689 1331.51C495.333 1319.64 503.314 1325.56 503.692 1314.68C504.396 1294.39 491.296 1293.26 490.551 1278.88C490.422 1276.38 490.822 1271.73 498.424 1262.89C503.082 1257.48 496.056 1248.16 494.572 1243C492.852 1237.02 492.442 1233.65 500.536 1226.47C501.658 1225.45 503.761 1222.45 503.187 1218.63C502.469 1213.86 509.797 1214.6 514.143 1221.31C518.488 1228.02 519.52 1240.85 516.365 1264.24C515.516 1270.54 523.672 1282.74 529.53 1286.88C534.695 1291.26 534.787 1298.78 530.696 1309.39C529.452 1312.62 523.169 1330.13 526.415 1340.27C528.659 1347.28 517.965 1354.19 510.521 1355.75C505.434 1357.42 503.155 1363.36 504.439 1369.99C505.723 1376.62 491.985 1376.22 484.955 1375.18C482.989 1375.06 478.568 1375.36 476.616 1377.62C474.175 1380.43 459.831 1384.99 444.139 1381.67Z" fill="url(#paint1_linear_3150_6829)"/>
<path d="M1688.46 1280.28C1699.49 1281.64 1704.41 1285.02 1707 1285.29C1707.32 1285.26 1707.64 1285.24 1707.97 1285.21C1721.84 1284.08 1749.3 1285.3 1734.21 1281.99C1718.76 1278.6 1725.8 1271.47 1731.14 1267.04C1745.85 1257.55 1747.91 1247.64 1743.04 1241.36C1727.96 1221.91 1731.02 1212.52 1734.14 1210.53L1734.44 1210.18C1742.61 1200.4 1754.49 1186.2 1738.14 1174.68C1721.59 1163.02 1723.92 1152.99 1727.15 1149.44C1731.03 1141.62 1739.48 1129.82 1732.81 1121C1724.29 1109.74 1723.11 1100.26 1725.09 1095.79C1728.97 1088.13 1735.61 1068.62 1731.21 1051.89C1725.7 1030.96 1720.42 1030.46 1714.64 1011.33C1710.01 996.023 1717 984.954 1721.07 981.332C1740.14 965.304 1736.8 952.108 1721.36 959.124C1675.82 979.825 1676.26 1016.68 1682.17 1032.53C1690.24 1043.6 1703.92 1072.69 1694.1 1100.4C1684.28 1128.12 1689.46 1153.68 1693.28 1162.99C1700.02 1172.78 1711.26 1194.86 1702.28 1204.81C1691.05 1217.26 1695.04 1246.26 1697.17 1249.41C1700.37 1254.15 1703.76 1264.06 1702.47 1266.74C1701.44 1268.88 1699.69 1267.61 1698.95 1266.7C1701.85 1256.41 1686.79 1254.68 1686.8 1254.01C1686.8 1253.34 1689.88 1248.88 1673.64 1240.64C1657.4 1232.39 1661.01 1225.7 1661.02 1225.02C1661.04 1223.88 1663.62 1218.54 1658.4 1214C1634.86 1193.53 1644.49 1168.65 1645.79 1159.35C1647.74 1145.46 1636.63 1129.64 1631.28 1115.9C1625.93 1102.16 1632.55 1095.5 1620.24 1094.69C1610.39 1094.05 1612.01 1108.44 1613.67 1115.71C1619.04 1128.33 1630.43 1144 1624.38 1162.27C1617.57 1182.84 1614.18 1198.36 1614.77 1204.12C1617.35 1218.28 1634.59 1246.24 1660.66 1252.61C1686.73 1258.99 1697 1268.7 1698.87 1272.76C1693.15 1274.12 1679.31 1275.96 1669.7 1272.45C1657.69 1268.06 1612.55 1257.94 1638.03 1271.22C1663.51 1284.5 1672.64 1278.32 1688.46 1280.28Z" fill="url(#paint2_linear_3150_6829)"/>
<path d="M1774.32 1282.09C1767.86 1282.17 1754.47 1280.58 1752.55 1273.56C1750.63 1266.54 1761.98 1263.78 1767.54 1262.05C1773.61 1259.42 1780.47 1249.93 1769.37 1237.61C1755.49 1222.21 1756.76 1221.1 1767.03 1205.28C1777.3 1189.46 1761.07 1180.32 1756.89 1173.32C1752.7 1166.32 1753.53 1142.1 1766.26 1130.34C1778.98 1118.58 1789.06 1117.12 1787.75 1102.3C1786.44 1087.48 1767.53 1072.02 1772.13 1046.94C1775.82 1026.88 1787.63 1022.72 1793.07 1023.16C1796.09 1022.89 1802.09 1025.9 1801.9 1040.07C1801.67 1057.8 1806.43 1058.97 1807.62 1063.69C1810.41 1074.71 1806.01 1071.72 1805.82 1085.88C1805.7 1095.31 1810.72 1095.81 1813.42 1100.77C1816.12 1105.74 1831.48 1123.84 1801.86 1157.19C1795.59 1164.25 1793.77 1179.54 1800.93 1189.93C1803.94 1196.55 1814.46 1217.77 1800.34 1234.57C1782.97 1255.25 1785.19 1248.92 1782.91 1259.52C1781.04 1268.25 1787.54 1270.56 1792.06 1271.06C1796.84 1271.63 1809.23 1270.2 1820.63 1259.91C1834.88 1247.05 1824.45 1237.52 1827.55 1230.82C1833.34 1218.34 1841.46 1225.13 1842.62 1213.48C1844.78 1191.74 1830.86 1189.8 1831.06 1174.32C1831.1 1171.63 1831.85 1166.66 1840.59 1157.59C1845.94 1152.04 1839.08 1141.65 1837.85 1136.03C1836.43 1129.51 1836.23 1125.87 1845.38 1118.61C1846.65 1117.57 1849.1 1114.47 1848.76 1110.34C1848.32 1105.18 1856.1 1106.38 1860.28 1113.83C1864.45 1121.27 1864.67 1135.1 1859.67 1160.04C1858.32 1166.75 1866.19 1180.3 1872.16 1185.07C1877.38 1190.06 1876.96 1198.13 1871.85 1209.3C1870.29 1212.69 1862.36 1231.14 1865.12 1242.21C1867.04 1249.85 1855.13 1256.69 1847.06 1257.95C1841.51 1259.46 1838.66 1265.71 1839.57 1272.9C1840.48 1280.09 1825.83 1278.89 1818.39 1277.39C1816.29 1277.14 1811.55 1277.23 1809.31 1279.54C1806.5 1282.42 1790.85 1286.52 1774.32 1282.09Z" fill="url(#paint3_linear_3150_6829)"/>
<path d="M217.244 1336.2C220.649 1331.23 226.797 1319.78 224.159 1313.71C221.52 1307.63 209.152 1294.51 203.298 1288.71C198.504 1283.24 194.684 1275.66 219.21 1276.55C233.763 1277.08 203.427 1246.95 200.287 1237.49C197.741 1229.81 200.374 1226.69 201.068 1226.18C202.283 1223.85 207.063 1220.82 216.46 1227.28C217.299 1227.86 219.411 1228.84 221.147 1228.13C223.317 1227.26 227.975 1222.17 218.282 1206.62C208.59 1191.08 209.66 1187.67 211.83 1186.79C214 1185.91 220.365 1187.92 226.73 1189.92C233.096 1191.93 231.027 1176.63 227.453 1166.73C217.789 1139.95 213.507 1136.42 205.261 1126.01C197.015 1115.61 193.629 1090.18 210.815 1081.86C212.956 1080.76 217.029 1080.44 216.196 1087.93C215.155 1097.28 213.825 1115.91 236.363 1124.88C239.015 1125.72 243.978 1125.97 242.612 1120.3C240.905 1113.2 249.701 1116.28 252.652 1121.27C255.603 1126.26 260.146 1131.75 251.553 1153.09C244.68 1170.16 245.777 1180.31 247.185 1183.25C248.256 1185.57 251.936 1186.87 258.093 1173.57C265.788 1156.95 270.765 1182.88 266.628 1191.88C262.491 1200.88 257.689 1210.61 251.208 1219.18C246.023 1226.04 246.193 1231.13 246.926 1232.82C247.997 1235.14 251.637 1238.43 257.631 1233.07C265.125 1226.38 267.324 1231.44 267.584 1233.4C267.845 1235.35 269.06 1244.48 262.348 1257.04C256.978 1267.09 248.364 1276.06 244.729 1279.28C241.594 1282.46 236.333 1289.5 240.36 1292.27C245.395 1295.73 252.309 1290.41 257.633 1284.6C262.956 1278.78 262.696 1276.82 266.544 1277.1C270.392 1277.38 274.095 1282.29 273.285 1287.66C272.475 1293.02 270.653 1296.51 262.667 1305.23C254.682 1313.96 243.023 1323.71 245.02 1338.7L231.132 1337.45L217.244 1336.2Z" fill="#56A03E"/>
<ellipse cx="2330" cy="1364.5" rx="52" ry="24.5" fill="#AFAEAE"/>
<ellipse cx="39.0987" cy="18.4321" rx="39.0987" ry="18.4321" transform="matrix(0.985177 0.171538 -0.122591 0.992457 2348.96 1340)" fill="#999999"/>
<ellipse cx="31.5" cy="17" rx="31.5" ry="17" transform="matrix(-1 0 0 1 257 1312)" fill="#AFAEAE"/>
<ellipse cx="32.5673" cy="19.2683" rx="32.5673" ry="19.2683" transform="matrix(-0.980845 0.194788 0.107672 0.994187 220.738 1312)" fill="#999999"/>
<defs>
<linearGradient id="paint0_linear_3150_6829" x1="1285.82" y1="1489.49" x2="1285.82" y2="161.738" gradientUnits="userSpaceOnUse">
<stop stop-color="#F15C7A"/>
<stop offset="1" stop-color="#FFB48D"/>
</linearGradient>
<linearGradient id="paint1_linear_3150_6829" x1="1285.82" y1="1489.49" x2="1285.82" y2="161.738" gradientUnits="userSpaceOnUse">
<stop stop-color="#F15C7A"/>
<stop offset="1" stop-color="#FFB48D"/>
</linearGradient>
<linearGradient id="paint2_linear_3150_6829" x1="1285.82" y1="1489.49" x2="1285.82" y2="161.738" gradientUnits="userSpaceOnUse">
<stop stop-color="#F15C7A"/>
<stop offset="1" stop-color="#FFB48D"/>
</linearGradient>
<linearGradient id="paint3_linear_3150_6829" x1="1285.82" y1="1489.49" x2="1285.82" y2="161.738" gradientUnits="userSpaceOnUse">
<stop stop-color="#F15C7A"/>
<stop offset="1" stop-color="#FFB48D"/>
</linearGradient>
</defs>
</svg>
