<svg width="40" height="40" viewBox="0 0 40 40" fill="none" xmlns="http://www.w3.org/2000/svg">
<path d="M40 20C40 31.0457 31.0457 40 20 40C8.9543 40 0 31.0457 0 20C0 8.9543 8.9543 0 20 0C31.0457 0 40 8.9543 40 20Z" fill="#BCE9EB"/>
<path d="M21.3372 0C44.7602 0.79593 48.4222 39.2678 19.0875 39.5981C18.3612 39.6199 17.6193 39.6053 16.8627 39.5521C17.6244 39.5913 18.3659 39.6062 19.0875 39.5981C40.6191 38.9512 48.4881 6.31117 21.3372 0Z" fill="#59ABAC"/>
<path d="M2.2213 25.098C-1.85041 16.5539 5.88579 -5.00997 27.0588 3.53419C19.7297 1.75596 2.62847 1.90673 2.2213 25.098Z" fill="white"/>
<path d="M15.4308 35.9495C8.37743 35.0846 8.98232 33.6615 10.0799 33.5269C21.9342 31.9119 27.093 26.9321 28.1906 24.6441C31.0718 19.3952 30.179 16.3867 29.0138 13.3387C27.779 10.1086 25.4404 7.58735 27.3674 6.87849C30.6602 5.66721 33.6889 9.96908 34.3647 11.7237C41.362 29.8931 25.3093 37.1608 15.4308 35.9495Z" fill="#9DDADA"/>
<path d="M36.8748 16.4706C38.1283 21.5087 36.8748 34.0359 23.9216 36.0784C27.6822 35.0873 37.7105 27.0915 36.8748 16.4706Z" fill="white"/>
<path d="M16.4706 17.0588C16.4706 20.1993 13.837 22.7451 10.5882 22.7451C7.3395 22.7451 4.70588 20.1993 4.70588 17.0588C4.70588 13.9184 7.3395 11.3725 10.5882 11.3725C13.837 11.3725 16.4706 13.9184 16.4706 17.0588Z" fill="#E9FFFF"/>
<path d="M32.549 26.4706C32.549 28.9613 30.5299 30.9804 28.0392 30.9804C25.5485 30.9804 23.5294 28.9613 23.5294 26.4706C23.5294 23.9799 25.5485 21.9608 28.0392 21.9608C30.5299 21.9608 32.549 23.9799 32.549 26.4706Z" fill="#E9FFFF"/>
<path d="M8.23529 24.7059C8.23529 25.7888 7.26963 26.6667 6.07843 26.6667C4.88723 26.6667 3.92157 25.7888 3.92157 24.7059C3.92157 23.623 4.88723 22.7451 6.07843 22.7451C7.26963 22.7451 8.23529 23.623 8.23529 24.7059Z" fill="#E9FFFF"/>
<path d="M36.0784 19.8039C36.0784 20.9951 35.1128 21.9608 33.9216 21.9608C32.7304 21.9608 31.7647 20.9951 31.7647 19.8039C31.7647 18.6127 32.7304 17.6471 33.9216 17.6471C35.1128 17.6471 36.0784 18.6127 36.0784 19.8039Z" fill="#E9FFFF"/>
</svg>
