<svg width="300" height="219" viewBox="0 0 300 219" fill="none" xmlns="http://www.w3.org/2000/svg">
<path d="M219.69 138.7C219.166 141.655 216.86 149.285 211.829 156.168C215.557 159.11 222.91 163.342 229.123 162.794C230.928 162.537 232.364 162.031 233.498 161.39C234.078 161.03 234.631 160.595 235.15 160.079C236.635 158.601 237.323 157.01 237.408 155.386C237.788 148.124 226.114 140.191 219.69 138.7Z" fill="#CA1A22"/>
<path d="M192.334 192.777C191.199 193.907 188.299 196.166 185.783 196.166C181.853 196.166 186.12 203.271 188.404 205.291C190.762 207.377 191.286 213.895 191.286 214.677C191.286 215.459 204.65 197.991 192.334 192.777Z" fill="#ED101A"/>
<path d="M207.112 162.425C204.806 165.554 197.591 171.724 194.272 174.418C197.601 179.623 204.63 187.647 211.042 187.126C213.268 186.698 214.912 185.676 216.072 184.553C216.143 184.479 216.213 184.403 216.283 184.325C217.204 183.304 217.846 182.256 218.251 181.196C221.079 173.811 212.459 165.845 207.112 162.425Z" fill="#CA1A22"/>
<path d="M174.619 185.368C176.191 190.061 181.222 198.716 188.769 195.796C196.316 192.876 192.612 182.587 189.817 177.807C184.157 180.936 177.326 184.151 174.619 185.368Z" fill="#CA1A22"/>
<path d="M108.06 180.154L92.8614 169.986C88.8788 173.444 83.1073 180.808 86.2662 186.671C86.9178 187.881 87.9493 189.026 89.4549 190.061C90.8985 191.052 92.3007 191.609 93.6475 191.821C100.515 192.902 105.942 185.022 108.06 180.154Z" fill="#CA1A22"/>
<path d="M93.6475 191.821C89.1928 190.582 86.9685 187.975 86.2662 186.671C74.2818 190.634 79.3805 207.094 83.4279 214.829C83.1658 212.308 83.8472 206.381 88.6687 202.836C93.4903 199.29 93.9969 194.015 93.6475 191.821Z" fill="#ED101A"/>
<path d="M128.499 188.236C122.839 186.984 115.31 183.89 112.253 182.5C110.688 186.289 109.114 193.313 112.253 197.123C112.768 197.749 113.411 198.288 114.202 198.712C115.24 199.193 116.707 199.707 118.804 199.699C124.946 199.372 127.805 192.225 128.499 188.236Z" fill="#CA1A22"/>
<path d="M118.804 199.699C118.017 199.644 117.116 199.583 116.183 199.363C115.438 199.188 114.873 198.925 114.202 198.712C113.094 197.969 112.515 197.422 112.253 197.123C103.304 200.04 109.626 212.745 113.991 218.867C113.161 217.619 112.548 214.295 116.183 209.875C119.957 205.286 119.502 201.179 118.804 199.699Z" fill="#ED101A"/>
<path d="M219.952 121.493C224.843 118.799 235.167 108.411 236.635 94.2284C238.286 95.532 243.765 99.3843 252.989 97.5071C253.251 104.373 246.995 120.241 221 126.707L219.952 121.493Z" fill="#CA1A22"/>
<path d="M292.8 23.2036C284.337 7.80238 272.535 0.869048 267.382 0C272.622 36.7607 251.572 65.195 239.605 76.3893C245.697 77.717 251.515 78.6971 256.9 78.9964C259.497 79.1021 262.317 79.0911 265.285 78.9964C277.715 78.3206 287.46 70.4924 292.8 63.3536C301.185 52.1429 303.543 42.7571 292.8 23.2036Z" fill="#CA1A22"/>
<path d="M249.563 98.0286C264.237 96.7772 268.08 84.5583 268.168 78.7357C267.173 78.7903 266.242 78.9659 265.285 78.9964C262.665 78.9964 259.782 78.9964 256.9 78.9964C249.563 78.2356 243.798 77.2529 239.605 76.3893C234.305 74.6732 230.744 72.6914 229.123 71.175C226.985 78.7374 231.474 99.5712 249.563 98.0286Z" fill="#ED101A"/>
<path d="M240.129 76.65C231.22 75.0857 215.759 63.1971 212.615 47.9714C208.684 28.9393 237.771 12.2536 244.584 13.5571C239.43 26.419 233.473 54.5414 250.873 64.1357L240.129 76.65Z" fill="#CA1A22"/>
<path d="M119.066 101.939C105.614 102.287 78.2919 109.604 76.6148 136.093C74.9377 162.581 104.217 179.98 119.066 185.368C134.089 191.19 171.317 196.161 200.037 169.464C228.756 142.767 221.087 117.669 213.663 108.457C210.256 104.112 199.984 96.725 186.148 101.939V96.9857H175.929V100.636C169.203 98.0286 150.982 94.3786 131.906 100.636V93.8571L119.066 95.6821V101.939Z" fill="#ED101A"/>
<path d="M132.692 99.5638C150.668 93.9874 167.718 96.9643 175.143 99.516V96.2036H186.935V100.828C200.64 96.2194 210.809 103.552 214.276 107.968C218.106 112.72 221.947 121.49 221.188 132.458C220.428 143.448 215.055 156.574 200.574 170.036C171.562 197.004 133.991 191.985 118.796 186.103L118.082 185.838C110.601 183.019 99.8819 177.372 91.1065 169.215C82.0483 160.795 74.9712 149.611 75.8302 136.043C76.6885 122.488 84.1285 113.827 93.0216 108.542C101.56 103.467 111.462 101.481 118.28 101.185V95.0039L132.692 92.9553V99.5638ZM119.852 96.3604V102.702L119.086 102.721C112.461 102.892 102.408 104.785 93.8282 109.884C85.2781 114.966 78.2182 123.209 77.3994 136.142C76.5814 149.063 83.3055 159.823 92.1797 168.072C100.776 176.062 111.307 181.612 118.636 184.374L119.335 184.633L119.343 184.636L119.351 184.639C134.214 190.399 171.082 195.309 199.5 168.893C213.738 155.658 218.891 142.886 219.62 132.35C220.35 121.791 216.644 113.406 213.05 108.946L213.046 108.942L213.043 108.938C209.78 104.776 199.847 97.6128 186.427 102.67L185.362 103.072V97.7678H176.715V101.78L175.643 101.364C169.052 98.8096 151.022 95.1892 132.152 101.379L131.12 101.717V94.7589L119.852 96.3604Z" fill="#ED101A"/>
<path d="M68.2294 81.6554C64.8229 85.5143 51.9828 90.8325 28.9231 87.9125C29.2725 94.3959 34.5832 108.051 51.9828 107.675C52.2761 107.665 52.5701 107.651 52.864 107.634C60.5128 107.085 73.0696 101.319 68.2294 81.6554Z" fill="#ED101A"/>
<path d="M44.1216 106.754C47.895 127.82 67.356 135.398 76.6148 136.093L77.4009 130.357C69.0156 128.063 62.5519 112.107 60.8923 105.068C58.8496 106.326 55.8629 107.458 52.864 107.634C52.5622 107.656 52.268 107.669 51.9828 107.675C48.8195 107.785 46.0068 107.053 44.1216 106.754Z" fill="#CA1A22"/>
<path d="M83.4279 64.1357C93.6476 44.3214 67.4433 25.2893 54.3412 23.9857C57.6097 37.4983 59.5762 66.4795 41.2941 74.3036C44.9656 80.0832 49.1468 84.4606 55.1274 87.8607C57.4857 87.3393 58.7824 86.9004 59.058 86.8179C67.9674 84.4714 75.5989 79.3149 83.4279 64.1357Z" fill="#CA1A22"/>
<path d="M1.67073 64.1357C9.84644 90.4157 38.8808 91.25 55.1274 87.8607C49.1468 84.4606 44.9656 80.0832 41.2941 74.3036C28.75 54.5568 28.2737 24.5284 30.2333 8.86429C17.3059 16.3381 -6.50499 37.8557 1.67073 64.1357Z" fill="#CA1A22"/>
<path d="M77.4009 146.782C78.8858 151.301 82.799 161.434 87.6206 164.771C83.6026 168.595 73.942 174.366 66.3952 167.9C58.8484 161.434 70.5878 151.127 77.4009 146.782Z" fill="#CA1A22"/>
<path d="M64.0368 163.729C64.4735 165.988 66.9193 169.986 73.2083 170.768C73.645 173.201 72.6842 179.163 65.347 183.543C58.0098 187.923 56.5249 194.232 56.6996 196.839C53.1184 187.28 49.5721 167.274 64.0368 163.729Z" fill="#ED101A"/>
<path d="M149.725 68.8286C149.725 83.9474 137.289 96.2036 121.948 96.2036C106.608 96.2036 94.1716 83.9474 94.1716 68.8286C94.1716 53.7098 106.608 41.4536 121.948 41.4536C137.289 41.4536 149.725 53.7098 149.725 68.8286Z" fill="#CA1A22"/>
<path d="M207.898 70.9143C207.898 86.0331 195.462 98.2893 180.121 98.2893C164.781 98.2893 152.345 86.0331 152.345 70.9143C152.345 55.7955 164.781 43.5393 180.121 43.5393C195.462 43.5393 207.898 55.7955 207.898 70.9143Z" fill="#CA1A22"/>
<path d="M200.037 72.2179C200.037 84.3129 190.182 94.1179 178.025 94.1179C165.868 94.1179 156.014 84.3129 156.014 72.2179C156.014 60.1228 165.868 50.3179 178.025 50.3179C190.182 50.3179 200.037 60.1228 200.037 72.2179Z" fill="white"/>
<path d="M145.532 70.1321C145.532 82.2272 135.677 92.0321 123.52 92.0321C111.364 92.0321 101.509 82.2272 101.509 70.1321C101.509 58.0371 111.364 48.2321 123.52 48.2321C135.677 48.2321 145.532 58.0371 145.532 70.1321Z" fill="white"/>
<path d="M183.801 78.2143C183.801 84.9818 178.287 90.4679 171.485 90.4679C164.683 90.4679 159.169 84.9818 159.169 78.2143C159.169 71.4468 164.683 65.9607 171.485 65.9607C178.287 65.9607 183.801 71.4468 183.801 78.2143Z" fill="black"/>
<path d="M141.863 76.65C141.863 83.4175 136.349 88.9036 129.547 88.9036C122.745 88.9036 117.231 83.4175 117.231 76.65C117.231 69.8825 122.745 64.3964 129.547 64.3964C136.349 64.3964 141.863 69.8825 141.863 76.65Z" fill="black"/>
<path d="M138.195 74.0429C138.195 75.6267 136.904 76.9107 135.312 76.9107C133.72 76.9107 132.43 75.6267 132.43 74.0429C132.43 72.459 133.72 71.175 135.312 71.175C136.904 71.175 138.195 72.459 138.195 74.0429Z" fill="white"/>
<path d="M170.164 74.0429C170.164 75.6267 168.873 76.9107 167.281 76.9107C165.689 76.9107 164.399 75.6267 164.399 74.0429C164.399 72.459 165.689 71.175 167.281 71.175C168.873 71.175 170.164 72.459 170.164 74.0429Z" fill="white"/>
<path d="M211.042 187.126C211.044 190.277 212.876 194.322 217.593 197.621C222.438 201.011 224.407 204.574 223.882 208.311C228.164 200.142 233.033 183.282 218.251 181.196C217.907 181.979 217.282 183.282 216.072 184.553C214.449 186.125 212.686 186.671 211.042 187.126Z" fill="#ED101A"/>
<path d="M229.123 162.794C229.231 165.14 231.039 170.924 237.408 173.636C243.778 176.347 247.292 184.151 248.252 187.714C250.719 177.72 252.002 157.263 237.408 155.386C237.331 156.869 236.198 159.557 233.498 161.39C232.006 162.081 230.696 162.487 229.123 162.794Z" fill="#ED101A"/>
<path d="M120.086 121.822C127.363 126.785 162 129 179.914 117C175.099 139.21 148.735 179.712 120.086 121.822Z" fill="#FF7278" stroke="#A6181F" stroke-width="4.5" stroke-linejoin="round"/>
</svg>
