<svg width="90" height="90" viewBox="0 0 90 90" fill="none" xmlns="http://www.w3.org/2000/svg">
<rect x="90" y="90" width="90" height="90" rx="22" transform="rotate(-180 90 90)" fill="#404040"/>
<path d="M70.8289 42.5449C70.0787 41.795 69.0615 41.3737 68.0009 41.3737C66.9402 41.3737 65.923 41.795 65.1729 42.5449L45.3729 62.3449L25.5729 42.5449C24.8184 41.8162 23.808 41.413 22.7592 41.4222C21.7105 41.4313 20.7072 41.8519 19.9656 42.5936C19.2239 43.3352 18.8033 44.3385 18.7942 45.3873C18.785 46.436 19.1882 47.4464 19.9169 48.2009L42.5449 70.8289C43.295 71.5787 44.3122 72 45.3729 72C46.4335 72 47.4507 71.5787 48.2009 70.8289L70.8289 48.2009C71.5787 47.4507 72 46.4335 72 45.3729C72 44.3122 71.5787 43.295 70.8289 42.5449Z" fill="white"/>
</svg>
