<svg width="39" height="152" viewBox="0 0 39 152" fill="none" xmlns="http://www.w3.org/2000/svg">
<path d="M8.88072 148.256C10.664 145.437 13.925 138.912 12.7024 135.366C11.4798 131.82 5.50227 124.072 2.6663 120.641C0.355801 117.419 -1.4338 112.988 10.8243 113.842C18.0979 114.349 3.40305 96.5284 1.98435 91.0225C0.833731 86.557 2.20141 84.7888 2.55707 84.5041C3.20247 83.1795 5.64287 81.4953 10.2412 85.3556C10.6518 85.7003 11.6929 86.2943 12.5728 85.9131C13.6727 85.4367 16.0854 82.5627 11.4855 73.4518C6.8856 64.3408 7.47609 62.3868 8.57599 61.9104C9.6759 61.4339 12.8286 62.6808 15.9814 63.9276C19.1341 65.1745 18.3452 56.314 16.7162 50.5463C12.3114 34.9499 10.2257 32.849 6.26696 26.726C2.30826 20.6031 1.02324 5.87596 9.75658 1.309C10.8455 0.706664 12.889 0.579088 12.3518 4.88748C11.6802 10.273 10.7147 21.011 21.8481 26.508C23.1618 27.0275 25.641 27.2424 25.049 23.9457C24.3089 19.8249 28.6604 21.7281 30.0569 24.6502C31.4533 27.5723 33.638 30.8061 28.9951 43.0065C25.2808 52.7668 25.6668 58.6435 26.324 60.3618C26.8225 61.7134 28.643 62.5185 31.9376 54.9255C36.0558 45.4344 38.129 60.4732 35.914 65.6129C33.6991 70.7525 31.1394 76.3028 27.7586 81.1637C25.054 85.0524 25.057 87.9946 25.3967 88.9796C25.8951 90.3313 27.6634 92.2824 30.7492 89.2736C34.6065 85.5126 35.6253 88.4676 35.7241 89.6005C35.823 90.7333 36.2843 96.02 32.7236 103.18C29.875 108.907 25.4205 113.963 23.5493 115.775C21.9299 117.565 19.1837 121.559 21.1544 123.214C23.6178 125.282 27.1633 122.309 29.9207 119.024C32.678 115.74 32.5792 114.607 34.5002 114.82C36.4213 115.033 38.1953 117.922 37.7037 121.009C37.212 124.095 36.2439 126.082 32.1079 131.009C27.9719 135.936 21.9807 141.405 22.7386 150.09L15.8096 149.173L8.88072 148.256Z" fill="#56A03E"/>
<path d="M15.8096 149.173L22.7386 150.09C21.9807 141.405 27.9719 135.936 32.1079 131.009C36.2439 126.082 37.212 124.095 37.7037 121.009C38.1953 117.922 36.4213 115.033 34.5002 114.82C32.5792 114.607 32.678 115.74 29.9207 119.024C27.1633 122.309 23.6178 125.282 21.1544 123.214C19.1837 121.559 21.9299 117.565 23.5493 115.775C25.4205 113.963 29.875 108.907 32.7236 103.18C36.2843 96.02 35.823 90.7333 35.7241 89.6005C35.6253 88.4676 34.6065 85.5126 30.7492 89.2736C27.6634 92.2824 25.8951 90.3313 25.3967 88.9796C25.057 87.9946 25.054 85.0524 27.7586 81.1637C31.1394 76.3028 33.6991 70.7525 35.914 65.6129C38.129 60.4732 36.0558 45.4344 31.9376 54.9255C28.643 62.5185 26.8225 61.7134 26.324 60.3618C25.6668 58.6435 25.2808 52.7668 28.9951 43.0065C33.638 30.8061 31.4533 27.5723 30.0569 24.6502C28.6604 21.7281 24.3089 19.8249 25.049 23.9457C25.641 27.2424 23.1618 27.0275 21.8481 26.508C10.7147 21.011 11.6802 10.273 12.3518 4.88748C12.889 0.579088 10.8455 0.706664 9.75658 1.309C1.02324 5.87596 2.30826 20.6031 6.26696 26.726C10.2257 32.849 12.3114 34.9499 16.7162 50.5463C18.3452 56.314 19.1341 65.1745 15.9814 63.9276C12.8286 62.6808 9.6759 61.4339 8.57599 61.9104C7.47609 62.3868 6.8856 64.3408 11.4855 73.4518C16.0854 82.5627 13.6727 85.4367 12.5728 85.9131C11.6929 86.2943 10.6518 85.7003 10.2412 85.3556C5.64287 81.4953 3.20247 83.1795 2.55707 84.5041C2.20141 84.7888 0.833731 86.557 1.98435 91.0225C3.40305 96.5284 18.0979 114.349 10.8243 113.842C-1.4338 112.988 0.355801 117.419 2.6663 120.641C5.50227 124.072 11.4798 131.82 12.7024 135.366C13.925 138.912 10.664 145.437 8.88072 148.256L15.8096 149.173ZM15.8096 149.173C16.9146 147.301 18.8153 141.757 17.5785 134.56C16.0325 125.563 14.0252 111.279 17.895 94.5806C21.7649 77.8817 23.7492 70.0987 22.2994 53.4836C20.8497 36.8684 19.6839 36.5896 14.7722 28.2668C9.86062 19.9441 7.36427 17.4984 7.34649 12.9341" stroke="#41802C" stroke-width="2" stroke-linecap="round" stroke-linejoin="round"/>
</svg>
