<svg width="2572" height="1490" viewBox="0 0 2572 1490" fill="none" xmlns="http://www.w3.org/2000/svg">
<path d="M0 1340.04V1041.08C122.799 1012.81 390.887 1003.23 534.768 1041.08C720.155 1089.84 1537.99 1144.44 1599.55 1149.21C1654.22 1153.45 2270.59 1167.59 2571.64 1149.21V1342.16C2260.29 1314.6 1625.7 1236.82 1549.64 1240.39C1459.32 1244.63 1301.4 1265.37 1209.77 1278.55C1136.09 1289.15 371.565 1322.37 0 1340.04Z" fill="#45BAF1" fill-opacity="0.36"/>
<path d="M0 65.7299L589.434 1316.72L404.047 1316.72L0 65.7299Z" fill="#78D6FF" fill-opacity="0.34"/>
<path d="M38.028 38.1658L1000.61 1300.34H820.557L38.028 38.1658Z" fill="#78D6FF" fill-opacity="0.34"/>
<path d="M320.861 0L2569.27 1017.59L2571.64 1149.21L320.861 0Z" fill="#78D6FF" fill-opacity="0.34"/>
<path d="M99.8234 42.4064L1523.5 1246.75L1192.95 1298.26L99.8234 42.4064Z" fill="#78D6FF" fill-opacity="0.34"/>
<path d="M195.176 25.4438L2569.27 1399.41L2131.94 1489.49L195.176 25.4438Z" fill="#78D6FF" fill-opacity="0.34"/>
<path d="M2.37675 1489.49V1339.38C405.27 1301.54 1004.84 1312.33 1373.05 1258.83C1751.02 1203.91 2238.37 1339.38 2569.27 1339.38V1489.49H2.37675Z" fill="#F9D984"/>
<path d="M1033.89 1348.26C1033.89 1350.45 1028.57 1352.23 1022 1352.23C1015.44 1352.23 1010.12 1350.45 1010.12 1348.26C1010.12 1346.06 1015.44 1344.28 1022 1344.28C1028.57 1344.28 1033.89 1346.06 1033.89 1348.26Z" fill="#E5AD5E"/>
<path d="M777.197 1369.46C777.197 1371.66 771.876 1373.44 765.313 1373.44C758.75 1373.44 753.429 1371.66 753.429 1369.46C753.429 1367.27 758.75 1365.49 765.313 1365.49C771.876 1365.49 777.197 1367.27 777.197 1369.46Z" fill="#E5AD5E"/>
<path d="M1191.16 1385.82C1115 1389.68 949.58 1471.02 884.523 1489.49H1734.44H2569.27V1340.04C2491.51 1370.56 2516.9 1400.28 2288.41 1414.74C2240.9 1417.74 1879.02 1378.59 1824.28 1378.59C1769.54 1378.59 1581.51 1402.69 1526.76 1402.69C1495.46 1402.69 1286.37 1381 1191.16 1385.82Z" fill="#FBA55C"/>
<path d="M1081.42 1337.92C1081.42 1341.44 1072.91 1344.28 1062.41 1344.28C1051.91 1344.28 1043.39 1341.44 1043.39 1337.92C1043.39 1334.41 1051.91 1331.56 1062.41 1331.56C1072.91 1331.56 1081.42 1334.41 1081.42 1337.92Z" fill="#E5AD5E"/>
<path d="M1030.72 1327.32C1030.72 1329.66 1025.04 1331.56 1018.04 1331.56C1011.04 1331.56 1005.36 1329.66 1005.36 1327.32C1005.36 1324.98 1011.04 1323.08 1018.04 1323.08C1025.04 1323.08 1030.72 1324.98 1030.72 1327.32Z" fill="#E5AD5E"/>
<path d="M555.367 1361.25C555.367 1363.59 549.692 1365.49 542.691 1365.49C535.69 1365.49 530.015 1363.59 530.015 1361.25C530.015 1358.9 535.69 1357 542.691 1357C549.692 1357 555.367 1358.9 555.367 1361.25Z" fill="#E5AD5E"/>
<path d="M355.72 1390.93C355.72 1393.27 350.045 1395.17 343.044 1395.17C336.043 1395.17 330.368 1393.27 330.368 1390.93C330.368 1388.59 336.043 1386.69 343.044 1386.69C350.045 1386.69 355.72 1388.59 355.72 1390.93Z" fill="#E5AD5E"/>
<path d="M1374.84 1319.61C1374.84 1321.53 1379.48 1323.08 1385.21 1323.08C1390.94 1323.08 1395.58 1321.53 1395.58 1319.61C1395.58 1317.69 1390.94 1316.14 1385.21 1316.14C1379.48 1316.14 1374.84 1317.69 1374.84 1319.61Z" fill="#E5AD5E"/>
<path d="M1342.86 1309.59C1342.86 1311.5 1347.51 1313.06 1353.23 1313.06C1358.96 1313.06 1363.61 1311.5 1363.61 1309.59C1363.61 1307.67 1358.96 1306.12 1353.23 1306.12C1347.51 1306.12 1342.86 1307.67 1342.86 1309.59Z" fill="#E5AD5E"/>
<path d="M1333.36 1330.79C1333.36 1332.71 1338 1334.26 1343.73 1334.26C1349.46 1334.26 1354.1 1332.71 1354.1 1330.79C1354.1 1328.87 1349.46 1327.32 1343.73 1327.32C1338 1327.32 1333.36 1328.87 1333.36 1330.79Z" fill="#E5AD5E"/>
<path d="M1214.52 1314.6C1214.52 1316.94 1220.19 1318.84 1227.19 1318.84C1234.2 1318.84 1239.87 1316.94 1239.87 1314.6C1239.87 1312.26 1234.2 1310.36 1227.19 1310.36C1220.19 1310.36 1214.52 1312.26 1214.52 1314.6Z" fill="#E5AD5E"/>
<path d="M1490.22 1356.23C1490.22 1358.15 1494.86 1359.7 1500.59 1359.7C1506.32 1359.7 1510.96 1358.15 1510.96 1356.23C1510.96 1354.32 1506.32 1352.76 1500.59 1352.76C1494.86 1352.76 1490.22 1354.32 1490.22 1356.23Z" fill="#E5AD5E"/>
<path d="M1761.17 1284.14C1761.17 1286.06 1765.81 1287.61 1771.54 1287.61C1777.27 1287.61 1781.91 1286.06 1781.91 1284.14C1781.91 1282.23 1777.27 1280.67 1771.54 1280.67C1765.81 1280.67 1761.17 1282.23 1761.17 1284.14Z" fill="#E5AD5E"/>
<path d="M1699.38 1330.79C1699.38 1332.71 1704.02 1334.26 1709.75 1334.26C1715.47 1334.26 1720.12 1332.71 1720.12 1330.79C1720.12 1328.87 1715.47 1327.32 1709.75 1327.32C1704.02 1327.32 1699.38 1328.87 1699.38 1330.79Z" fill="#E5AD5E"/>
<path d="M1908.53 1332.91C1908.53 1336 1916.01 1338.5 1925.24 1338.5C1934.47 1338.5 1941.95 1336 1941.95 1332.91C1941.95 1329.82 1934.47 1327.32 1925.24 1327.32C1916.01 1327.32 1908.53 1329.82 1908.53 1332.91Z" fill="#E5AD5E"/>
<path d="M786.704 1349.87C786.704 1352.96 794.185 1355.46 803.413 1355.46C812.641 1355.46 820.122 1352.96 820.122 1349.87C820.122 1346.79 812.641 1344.28 803.413 1344.28C794.185 1344.28 786.704 1346.79 786.704 1349.87Z" fill="#E5AD5E"/>
<path d="M1571.03 1307.71C1571.03 1308.59 1573.16 1309.3 1575.78 1309.3C1578.41 1309.3 1580.54 1308.59 1580.54 1307.71C1580.54 1306.83 1578.41 1306.12 1575.78 1306.12C1573.16 1306.12 1571.03 1306.83 1571.03 1307.71Z" fill="#E5AD5E"/>
<path d="M1533 1309.59C1533 1311.5 1537.65 1313.06 1543.37 1313.06C1549.1 1313.06 1553.75 1311.5 1553.75 1309.59C1553.75 1307.67 1549.1 1306.12 1543.37 1306.12C1537.65 1306.12 1533 1307.67 1533 1309.59Z" fill="#E5AD5E"/>
<path d="M1580.54 1318.07C1580.54 1319.98 1585.18 1321.54 1590.91 1321.54C1596.64 1321.54 1601.28 1319.98 1601.28 1318.07C1601.28 1316.15 1596.64 1314.6 1590.91 1314.6C1585.18 1314.6 1580.54 1316.15 1580.54 1318.07Z" fill="#E5AD5E"/>
<path d="M1537.76 1290.47C1537.76 1293.53 1545.19 1296.02 1554.35 1296.02C1563.51 1296.02 1570.94 1293.53 1570.94 1290.47C1570.94 1287.4 1563.51 1284.91 1554.35 1284.91C1545.19 1284.91 1537.76 1287.4 1537.76 1290.47Z" fill="#E5AD5E"/>
<path d="M1377.61 1301.34C1377.61 1303.38 1382.56 1305.04 1388.67 1305.04C1394.78 1305.04 1399.73 1303.38 1399.73 1301.34C1399.73 1299.29 1394.78 1297.64 1388.67 1297.64C1382.56 1297.64 1377.61 1299.29 1377.61 1301.34Z" fill="#E5AD5E"/>
<path d="M1293.07 1270.05L1292.95 1270.07C1385.64 1265.83 1599.74 1271.73 1609.06 1270.07C1656.59 1261.59 2174.73 1330.96 2193.74 1335.8C2210.38 1340.04 2483.7 1367.61 2569.27 1340.04C2466.27 1332.27 2246.98 1311.63 2193.74 1299.76C2127.19 1284.91 1694.62 1244.63 1587.67 1240.39C1502.16 1237 1355.72 1260.15 1293.07 1270.05Z" fill="#FFEAB4"/>
<path d="M2467 41H2519.29V93.5821H2467V41Z" fill="white"/>
<path d="M2519.29 93.5823H2571.58V146.164H2519.29V93.5823Z" fill="white"/>
<rect x="2519.29" y="41" width="52.2885" height="52.5821" fill="#404040"/>
<rect x="2467" y="93.5823" width="52.2885" height="52.5821" fill="#404040"/>
<path d="M2467 251.328H2519.29V303.91H2467V251.328Z" fill="white"/>
<path d="M2519.29 303.911H2571.58V356.493H2519.29V303.911Z" fill="white"/>
<rect x="2519.29" y="251.328" width="52.2885" height="52.5821" fill="#404040"/>
<rect x="2467" y="303.911" width="52.2885" height="52.5821" fill="#404040"/>
<path d="M2467 356.492H2519.29V409.074H2467V356.492Z" fill="white"/>
<path d="M2519.29 409.074H2571.58V461.656H2519.29V409.074Z" fill="white"/>
<rect x="2519.29" y="356.492" width="52.2885" height="52.5821" fill="#404040"/>
<rect x="2467" y="409.074" width="52.2885" height="52.5821" fill="#404040"/>
<path d="M2467 461.656H2519.29V514.239H2467V461.656Z" fill="white"/>
<path d="M2519.29 514.239H2571.58V566.821H2519.29V514.239Z" fill="white"/>
<rect x="2519.29" y="461.656" width="52.2885" height="52.5821" fill="#404040"/>
<rect x="2467" y="514.239" width="52.2885" height="52.5821" fill="#404040"/>
<path d="M2467 566.821H2519.29V619.403H2467V566.821Z" fill="white"/>
<path d="M2519.29 619.402H2571.58V671.984H2519.29V619.402Z" fill="white"/>
<rect x="2519.29" y="566.821" width="52.2885" height="52.5821" fill="#404040"/>
<rect x="2467" y="619.402" width="52.2885" height="52.5821" fill="#404040"/>
<path d="M2467 146.164H2519.29V198.746H2467V146.164Z" fill="white"/>
<path d="M2519.29 198.746H2571.58V251.328H2519.29V198.746Z" fill="white"/>
<rect x="2519.29" y="146.164" width="52.2885" height="52.5821" fill="#404040"/>
<rect x="2467" y="198.746" width="52.2885" height="52.5821" fill="#404040"/>
<path d="M2467 1384.23H2519.29V1436.81H2467V1384.23Z" fill="white"/>
<path d="M2519.29 1436.81H2571.58V1489.4H2519.29V1436.81Z" fill="white"/>
<rect x="2519.29" y="1384.23" width="52.2885" height="52.5821" fill="#404040"/>
<rect x="2467" y="1436.81" width="52.2885" height="52.5821" fill="#404040"/>
<path d="M2467 1279.07H2519.29V1331.65H2467V1279.07Z" fill="white"/>
<path d="M2519.29 1331.65H2571.58V1384.23H2519.29V1331.65Z" fill="white"/>
<rect x="2519.29" y="1279.07" width="52.2885" height="52.5821" fill="#404040"/>
<rect x="2467" y="1331.65" width="52.2885" height="52.5821" fill="#404040"/>
<path d="M2467 1173.9H2519.29V1226.49H2467V1173.9Z" fill="white"/>
<path d="M2519.29 1226.49H2571.58V1279.07H2519.29V1226.49Z" fill="white"/>
<rect x="2519.29" y="1173.9" width="52.2885" height="52.5821" fill="#404040"/>
<rect x="2467" y="1226.49" width="52.2885" height="52.5821" fill="#404040"/>
<path d="M2467 1068.74H2519.29V1121.32H2467V1068.74Z" fill="white"/>
<path d="M2519.29 1121.32H2571.58V1173.9H2519.29V1121.32Z" fill="white"/>
<rect x="2519.29" y="1068.74" width="52.2885" height="52.5821" fill="#404040"/>
<rect x="2467" y="1121.32" width="52.2885" height="52.5821" fill="#404040"/>
<path d="M2467 963.576H2519.29V1016.16H2467V963.576Z" fill="white"/>
<path d="M2519.29 1016.16H2571.58V1068.74H2519.29V1016.16Z" fill="white"/>
<rect x="2519.29" y="963.576" width="52.2885" height="52.5821" fill="#404040"/>
<rect x="2467" y="1016.16" width="52.2885" height="52.5821" fill="#404040"/>
<path d="M2467 858.412H2519.29V910.994H2467V858.412Z" fill="white"/>
<path d="M2519.29 910.994H2571.58V963.576H2519.29V910.994Z" fill="white"/>
<rect x="2519.29" y="858.412" width="52.2885" height="52.5821" fill="#404040"/>
<rect x="2467" y="910.994" width="52.2885" height="52.5821" fill="#404040"/>
<rect x="2467.4" y="618.822" width="104" height="293.31" fill="#E01B24"/>
<path d="M2542.4 870.257C2542.4 872.07 2542.19 873.483 2541.76 874.497C2541.33 875.457 2540.85 876.123 2540.32 876.497C2539.79 876.87 2539.31 877.083 2538.88 877.137C2538.45 877.19 2538.24 877.217 2538.24 877.217C2538.24 877.217 2537.52 877.35 2536.08 877.617C2534.59 877.83 2532.67 878.123 2530.32 878.497C2527.97 878.87 2525.44 879.297 2522.72 879.777C2519.95 880.203 2517.28 880.63 2514.72 881.057C2512.11 881.43 2509.84 881.777 2507.92 882.097C2505.95 882.417 2504.61 882.657 2503.92 882.817C2502.85 883.03 2502 882.977 2501.36 882.657C2500.67 882.283 2500.16 881.83 2499.84 881.297C2499.47 880.71 2499.23 880.203 2499.12 879.777C2498.96 879.297 2498.88 879.057 2498.88 879.057C2498.88 879.057 2498.77 878.39 2498.56 877.057C2498.29 875.67 2497.97 873.963 2497.6 871.937C2497.23 869.91 2496.88 867.83 2496.56 865.697C2496.19 863.563 2495.89 861.697 2495.68 860.097C2495.47 858.497 2495.55 857.243 2495.92 856.337C2496.24 855.43 2496.67 854.763 2497.2 854.337C2497.73 853.91 2498.24 853.643 2498.72 853.537C2499.15 853.43 2499.36 853.377 2499.36 853.377C2499.36 853.377 2499.79 853.323 2500.64 853.217C2501.49 853.057 2502.51 852.897 2503.68 852.737C2504.8 852.577 2505.87 852.47 2506.88 852.417C2508.37 852.31 2509.6 852.657 2510.56 853.457C2511.52 854.257 2512.13 855.99 2512.4 858.657C2512.56 860.417 2512.37 861.67 2511.84 862.417C2511.31 863.163 2510.75 863.617 2510.16 863.777C2509.57 863.883 2509.28 863.937 2509.28 863.937L2504 864.417L2504.48 869.457L2518.24 866.657C2518.24 866.657 2518.24 866.31 2518.24 865.617C2518.24 864.923 2518.32 864.123 2518.48 863.217C2518.59 862.31 2518.85 861.483 2519.28 860.737C2519.71 859.99 2520.37 859.537 2521.28 859.377C2522.13 859.217 2522.83 859.457 2523.36 860.097C2523.89 860.683 2524.27 861.403 2524.48 862.257C2524.69 863.057 2524.85 863.803 2524.96 864.497C2525.01 865.137 2525.04 865.457 2525.04 865.457C2525.04 865.457 2526.19 865.297 2528.48 864.977C2530.72 864.657 2533.49 864.31 2536.8 863.937C2538.45 863.723 2539.68 863.937 2540.48 864.577C2541.28 865.163 2541.81 865.91 2542.08 866.817C2542.35 867.67 2542.45 868.47 2542.4 869.217C2542.4 869.91 2542.4 870.257 2542.4 870.257ZM2538.32 844.948C2536.51 845.108 2534.24 845.214 2531.52 845.268C2528.75 845.321 2525.79 845.348 2522.64 845.348C2519.49 845.348 2516.45 845.321 2513.52 845.268C2510.53 845.161 2507.89 845.054 2505.6 844.948C2503.31 844.841 2501.65 844.734 2500.64 844.628C2499.36 844.468 2498.4 844.014 2497.76 843.268C2497.07 842.521 2496.59 841.694 2496.32 840.788C2496.05 839.828 2495.92 839.028 2495.92 838.388C2495.87 837.694 2495.84 837.348 2495.84 837.348C2495.84 837.348 2495.89 837.028 2496 836.388C2496.05 835.694 2496.19 834.948 2496.4 834.148C2496.61 833.348 2496.99 832.788 2497.52 832.468C2498.59 831.774 2499.63 831.454 2500.64 831.508C2501.6 831.508 2502.85 831.561 2504.4 831.668C2508.4 831.988 2512.32 832.174 2516.16 832.228C2520 832.281 2523.49 832.281 2526.64 832.228C2529.79 832.174 2532.29 832.121 2534.16 832.068C2536.03 831.961 2536.96 831.908 2536.96 831.908C2536.96 831.908 2537.25 831.934 2537.84 831.988C2538.37 831.988 2538.99 832.148 2539.68 832.468C2540.37 832.788 2541.01 833.401 2541.6 834.308C2542.13 835.214 2542.4 836.548 2542.4 838.308C2542.4 840.068 2542.21 841.428 2541.84 842.388C2541.41 843.294 2540.93 843.934 2540.4 844.308C2539.81 844.628 2539.33 844.814 2538.96 844.868C2538.53 844.921 2538.32 844.948 2538.32 844.948ZM2542.4 814.275C2542.4 816.195 2542.19 817.661 2541.76 818.675C2541.28 819.635 2540.75 820.328 2540.16 820.755C2539.52 821.128 2538.99 821.341 2538.56 821.395C2538.08 821.395 2537.84 821.395 2537.84 821.395C2537.84 821.395 2537.04 821.475 2535.44 821.635C2533.84 821.795 2531.79 822.008 2529.28 822.275C2526.72 822.541 2524 822.835 2521.12 823.155C2518.19 823.421 2515.39 823.715 2512.72 824.035C2510 824.301 2507.71 824.515 2505.84 824.675C2503.92 824.835 2502.72 824.941 2502.24 824.995C2500.85 825.048 2499.65 824.755 2498.64 824.115C2497.57 823.421 2496.96 821.768 2496.8 819.155C2496.69 817.395 2496.96 815.981 2497.6 814.915C2498.24 813.848 2498.91 813.075 2499.6 812.595C2500.24 812.115 2500.56 811.875 2500.56 811.875L2518.8 804.355L2524.32 801.395L2509.12 803.235C2509.12 803.235 2508.24 803.235 2506.48 803.235C2504.72 803.181 2502.61 803.075 2500.16 802.915C2498.93 802.808 2498 802.408 2497.36 801.715C2496.72 801.021 2496.27 800.248 2496 799.395C2495.73 798.488 2495.6 797.715 2495.6 797.075C2495.55 796.381 2495.52 796.035 2495.52 796.035C2495.52 796.035 2495.55 795.741 2495.6 795.155C2495.65 794.515 2495.89 793.795 2496.32 792.995C2496.69 792.195 2497.39 791.501 2498.4 790.915C2499.36 790.275 2500.77 789.981 2502.64 790.035C2504.93 790.088 2507.55 790.008 2510.48 789.795C2513.36 789.581 2516.32 789.315 2519.36 788.995C2522.4 788.621 2525.25 788.275 2527.92 787.955C2530.53 787.581 2532.72 787.261 2534.48 786.995C2536.24 786.675 2537.33 786.488 2537.76 786.435C2538.4 786.328 2539.17 786.301 2540.08 786.355C2540.99 786.408 2541.79 786.835 2542.48 787.635C2543.17 788.381 2543.55 789.795 2543.6 791.875C2543.6 793.955 2543.36 795.501 2542.88 796.515C2542.4 797.528 2541.92 798.221 2541.44 798.595C2540.91 798.915 2540.64 799.075 2540.64 799.075L2519.12 811.075C2519.12 811.075 2519.65 810.968 2520.72 810.755C2521.79 810.541 2523.17 810.301 2524.88 810.035C2526.59 809.715 2528.43 809.421 2530.4 809.155C2532.37 808.835 2534.27 808.595 2536.08 808.435C2537.89 808.275 2539.25 808.488 2540.16 809.075C2541.01 809.608 2541.6 810.301 2541.92 811.155C2542.24 811.955 2542.4 812.675 2542.4 813.315C2542.4 813.955 2542.4 814.275 2542.4 814.275ZM2538.32 779.948C2536.51 780.108 2534.24 780.214 2531.52 780.268C2528.75 780.321 2525.79 780.348 2522.64 780.348C2519.49 780.348 2516.45 780.321 2513.52 780.268C2510.53 780.161 2507.89 780.054 2505.6 779.948C2503.31 779.841 2501.65 779.734 2500.64 779.628C2499.36 779.468 2498.4 779.014 2497.76 778.268C2497.07 777.521 2496.59 776.694 2496.32 775.788C2496.05 774.828 2495.92 774.028 2495.92 773.388C2495.87 772.694 2495.84 772.348 2495.84 772.348C2495.84 772.348 2495.89 772.028 2496 771.388C2496.05 770.694 2496.19 769.948 2496.4 769.148C2496.61 768.348 2496.99 767.788 2497.52 767.468C2498.59 766.774 2499.63 766.454 2500.64 766.508C2501.6 766.508 2502.85 766.561 2504.4 766.668C2508.4 766.988 2512.32 767.174 2516.16 767.228C2520 767.281 2523.49 767.281 2526.64 767.228C2529.79 767.174 2532.29 767.121 2534.16 767.068C2536.03 766.961 2536.96 766.908 2536.96 766.908C2536.96 766.908 2537.25 766.934 2537.84 766.988C2538.37 766.988 2538.99 767.148 2539.68 767.468C2540.37 767.788 2541.01 768.401 2541.6 769.308C2542.13 770.214 2542.4 771.548 2542.4 773.308C2542.4 775.068 2542.21 776.428 2541.84 777.388C2541.41 778.294 2540.93 778.934 2540.4 779.308C2539.81 779.628 2539.33 779.814 2538.96 779.868C2538.53 779.921 2538.32 779.948 2538.32 779.948ZM2510.48 734.635C2510.48 736.448 2510.27 737.835 2509.84 738.795C2509.36 739.755 2508.83 740.448 2508.24 740.875C2507.65 741.248 2507.12 741.461 2506.64 741.515C2506.11 741.568 2505.79 741.595 2505.68 741.595C2505.41 741.595 2504.99 741.701 2504.4 741.915C2503.76 742.075 2503.44 742.608 2503.44 743.515C2503.44 745.008 2503.89 746.341 2504.8 747.515C2505.71 748.635 2507.04 749.248 2508.8 749.355C2510.56 749.461 2512.08 749.008 2513.36 747.995C2514.64 746.981 2515.31 744.981 2515.36 741.995C2515.36 740.501 2515.57 738.928 2516 737.275C2516.43 735.621 2517.12 734.075 2518.08 732.635C2518.99 731.141 2520.24 729.968 2521.84 729.115C2523.39 728.208 2525.33 727.755 2527.68 727.755C2532.37 727.808 2536 729.061 2538.56 731.515C2541.12 733.968 2542.4 738.048 2542.4 743.755C2542.4 747.541 2541.95 750.581 2541.04 752.875C2540.08 755.168 2538.96 756.848 2537.68 757.915C2536.4 758.928 2535.25 759.461 2534.24 759.515C2533.23 759.568 2532.24 759.515 2531.28 759.355C2530.32 759.141 2529.49 758.581 2528.8 757.675C2528.11 756.715 2527.68 755.195 2527.52 753.115C2527.36 750.981 2527.55 749.461 2528.08 748.555C2528.56 747.648 2529.12 747.088 2529.76 746.875C2530.4 746.608 2530.8 746.475 2530.96 746.475C2531.12 746.475 2531.52 746.421 2532.16 746.315C2532.75 746.155 2533.33 745.888 2533.92 745.515C2534.45 745.088 2534.72 744.501 2534.72 743.755C2534.72 742.635 2534.27 741.675 2533.36 740.875C2532.45 740.075 2530.99 739.568 2528.96 739.355C2524.96 738.981 2522.96 740.981 2522.96 745.355C2522.96 746.421 2522.8 747.808 2522.48 749.515C2522.11 751.168 2521.47 752.821 2520.56 754.475C2519.6 756.128 2518.27 757.515 2516.56 758.635C2514.85 759.755 2512.61 760.288 2509.84 760.235C2507.07 760.181 2504.8 759.675 2503.04 758.715C2501.23 757.755 2499.84 756.501 2498.88 754.955C2497.87 753.355 2497.15 751.621 2496.72 749.755C2496.29 747.835 2496.05 745.941 2496 744.075C2495.95 741.568 2496.24 739.168 2496.88 736.875C2497.52 734.528 2498.51 732.581 2499.84 731.035C2501.12 729.435 2502.8 728.528 2504.88 728.315C2506.43 728.155 2507.6 728.395 2508.4 729.035C2509.15 729.621 2509.68 730.368 2510 731.275C2510.27 732.128 2510.43 732.901 2510.48 733.595C2510.48 734.288 2510.48 734.635 2510.48 734.635ZM2538 722.388L2500.24 723.908C2500.24 723.908 2500.03 723.908 2499.6 723.908C2499.17 723.855 2498.69 723.668 2498.16 723.348C2497.57 723.028 2497.07 722.442 2496.64 721.588C2496.16 720.682 2495.89 719.375 2495.84 717.668C2495.73 715.375 2496 713.748 2496.64 712.788C2497.23 711.775 2497.87 711.162 2498.56 710.948C2499.2 710.682 2499.55 710.548 2499.6 710.548C2499.65 710.548 2500.27 710.522 2501.44 710.468C2502.61 710.415 2504.05 710.362 2505.76 710.308C2507.47 710.255 2509.17 710.202 2510.88 710.148C2512.59 710.095 2514.03 710.042 2515.2 709.988C2516.32 709.935 2516.88 709.908 2516.88 709.908L2516.4 701.428L2500.32 702.708C2500.32 702.708 2500.13 702.735 2499.76 702.788C2499.33 702.788 2498.85 702.682 2498.32 702.468C2497.73 702.202 2497.2 701.668 2496.72 700.868C2496.19 700.015 2495.84 698.762 2495.68 697.108C2495.52 695.402 2495.63 694.095 2496 693.188C2496.32 692.282 2496.75 691.615 2497.28 691.188C2497.81 690.762 2498.29 690.522 2498.72 690.468C2499.15 690.362 2499.36 690.308 2499.36 690.308L2536.72 687.828C2536.72 687.828 2537.01 687.802 2537.6 687.748C2538.13 687.695 2538.8 687.775 2539.6 687.988C2540.35 688.202 2541.01 688.735 2541.6 689.588C2542.13 690.388 2542.4 691.642 2542.4 693.348C2542.4 695.055 2542.16 696.388 2541.68 697.348C2541.2 698.308 2540.67 699.002 2540.08 699.428C2539.44 699.855 2538.88 700.122 2538.4 700.228C2537.92 700.335 2537.68 700.388 2537.68 700.388L2522.32 700.948L2522.8 709.668L2538.48 708.948C2538.48 708.948 2538.69 708.975 2539.12 709.028C2539.49 709.082 2539.95 709.295 2540.48 709.668C2540.96 710.042 2541.41 710.682 2541.84 711.588C2542.21 712.495 2542.4 713.828 2542.4 715.588C2542.4 717.348 2542.19 718.708 2541.76 719.668C2541.28 720.575 2540.77 721.215 2540.24 721.588C2539.65 721.962 2539.15 722.202 2538.72 722.308C2538.24 722.362 2538 722.388 2538 722.388ZM2502.08 649.443L2524.32 648.963C2524.32 648.963 2524.35 648.963 2524.4 648.963C2524.51 648.963 2524.8 649.07 2525.28 649.283C2525.71 649.497 2526.13 650.057 2526.56 650.963C2526.99 651.817 2527.23 653.23 2527.28 655.203C2527.28 655.31 2527.28 655.443 2527.28 655.603C2527.28 657.63 2526.96 659.123 2526.32 660.083C2525.63 661.043 2524.96 661.683 2524.32 662.003C2523.63 662.27 2523.28 662.403 2523.28 662.403H2523.36L2500.64 662.803C2500.64 662.803 2500.61 662.803 2500.56 662.803C2500.4 662.803 2500.11 662.723 2499.68 662.563C2499.2 662.35 2498.75 661.87 2498.32 661.123C2497.89 660.323 2497.68 659.07 2497.68 657.363C2497.68 656.99 2497.68 656.617 2497.68 656.243C2497.79 654.003 2498.21 652.403 2498.96 651.443C2499.65 650.483 2500.35 649.923 2501.04 649.763C2501.68 649.55 2502.03 649.443 2502.08 649.443ZM2531.12 655.763C2531.12 655.603 2531.12 655.47 2531.12 655.363C2531.12 652.43 2531.57 650.537 2532.48 649.683C2533.33 648.777 2534.83 648.217 2536.96 648.003C2537.39 647.95 2537.76 647.923 2538.08 647.923C2539.79 647.923 2540.93 648.457 2541.52 649.523C2542.11 650.59 2542.4 652.403 2542.4 654.963C2542.4 656.83 2542.11 658.217 2541.52 659.123C2540.88 660.03 2540.03 660.643 2538.96 660.963C2537.84 661.23 2536.56 661.39 2535.12 661.443C2535.07 661.443 2534.99 661.443 2534.88 661.443C2533.71 661.443 2532.85 661.15 2532.32 660.563C2531.79 659.977 2531.47 659.31 2531.36 658.563C2531.2 657.763 2531.12 657.07 2531.12 656.483C2531.12 656.323 2531.12 656.163 2531.12 656.003C2531.12 655.843 2531.12 655.763 2531.12 655.763Z" fill="white"/>
</svg>
