<svg width="2727" height="2551" viewBox="0 0 2727 2551" fill="none" xmlns="http://www.w3.org/2000/svg">
<path d="M50 1967.7V1630.11C172.434 1598.18 439.726 1587.37 583.179 1630.11C768.015 1685.18 1583.42 1746.82 1644.8 1752.22C1699.3 1757.01 2313.84 1772.97 2614 1752.22V1864.75V1970.1C2303.57 1938.97 1670.86 1851.14 1595.04 1855.17C1504.99 1859.96 1347.53 1883.38 1256.17 1898.27C1182.71 1910.24 420.461 1947.75 50 1967.7Z" fill="#45BAF1" fill-opacity="0.36"/>
<path d="M0 586.088L639.345 1941.44L453.959 1941.44L0 586.088Z" fill="#78D6FF" fill-opacity="0.34"/>
<path d="M142.496 533.289L1573.41 1862.57L1242.86 1920.63L142.496 533.289Z" fill="#78D6FF" fill-opacity="0.34"/>
<path d="M350.5 540.462L2617.5 2010L2102.5 2084.33L350.5 540.462Z" fill="#78D6FF" fill-opacity="0.34"/>
<path d="M55 554.928L1050.52 1922.98L870.469 1922.98L55 554.928Z" fill="#78D6FF" fill-opacity="0.34"/>
<path d="M561.5 537.469L2615 1512.18L2615 1741.64L561.5 537.469Z" fill="#78D6FF" fill-opacity="0.34"/>
<path d="M52 2082.83V1945.83C454.911 1911.3 1054.51 1921.14 1422.73 1872.32C1800.72 1822.19 2288.09 1945.83 2619 1945.83V2082.83H1335.5H52Z" fill="#F9D984"/>
<ellipse cx="1072" cy="1977.08" rx="12" ry="4.98827" fill="#E5AD5E"/>
<ellipse cx="815" cy="2001.03" rx="12" ry="4.98827" fill="#E5AD5E"/>
<path d="M1241.29 2017.65C1165.15 2021.82 1016.04 2062.84 951 2082.83H2619V1968.1C2541.27 2001.13 2566.65 2033.29 2338.22 2048.94C2290.73 2052.19 1928.96 2009.82 1874.23 2009.82C1819.5 2009.82 1631.52 2035.9 1576.8 2035.9C1545.5 2035.9 1336.47 2012.43 1241.29 2017.65Z" fill="#FBA55C"/>
<ellipse cx="1112" cy="1965.11" rx="19" ry="6.98357" fill="#E5AD5E"/>
<ellipse cx="1068" cy="1953.14" rx="13" ry="4.98827" fill="#E5AD5E"/>
<ellipse cx="592.5" cy="1991.55" rx="12.5" ry="4.48944" fill="#E5AD5E"/>
<ellipse cx="393" cy="2025.97" rx="13" ry="3.99061" fill="#E5AD5E"/>
<ellipse cx="10" cy="4.48944" rx="10" ry="4.48944" transform="matrix(-1 0 0 1 1445 1939.17)" fill="#E5AD5E"/>
<ellipse cx="10.5" cy="3.49179" rx="10.5" ry="3.49179" transform="matrix(-1 0 0 1 1414 1929.19)" fill="#E5AD5E"/>
<ellipse cx="10.5" cy="4.98827" rx="10.5" ry="4.98827" transform="matrix(-1 0 0 1 1404 1952.14)" fill="#E5AD5E"/>
<ellipse cx="13" cy="3.99061" rx="13" ry="3.99061" transform="matrix(-1 0 0 1 1290 1933.19)" fill="#E5AD5E"/>
<ellipse cx="10.5" cy="3.99061" rx="10.5" ry="3.99061" transform="matrix(-1 0 0 1 1561 1982.07)" fill="#E5AD5E"/>
<ellipse cx="10.5" cy="3.49179" rx="10.5" ry="3.49179" transform="matrix(-1 0 0 1 1832 1901.26)" fill="#E5AD5E"/>
<ellipse cx="10.5" cy="4.98827" rx="10.5" ry="4.98827" transform="matrix(-1 0 0 1 1770 1952.14)" fill="#E5AD5E"/>
<ellipse cx="17" cy="7.4824" rx="17" ry="7.4824" transform="matrix(-1 0 0 1 1992 1952.14)" fill="#E5AD5E"/>
<ellipse cx="16.5" cy="6.98357" rx="16.5" ry="6.98357" transform="matrix(-1 0 0 1 870 1972.09)" fill="#E5AD5E"/>
<ellipse cx="4.5" cy="1.49648" rx="4.5" ry="1.49648" transform="matrix(-1 0 0 1 1630 1929.19)" fill="#E5AD5E"/>
<ellipse cx="10.5" cy="3.49179" rx="10.5" ry="3.49179" transform="matrix(-1 0 0 1 1604 1929.19)" fill="#E5AD5E"/>
<ellipse cx="10.5" cy="4.48944" rx="10.5" ry="4.48944" transform="matrix(-1 0 0 1 1651 1938.17)" fill="#E5AD5E"/>
<ellipse cx="16.5" cy="6.48474" rx="16.5" ry="6.48474" transform="matrix(-1 0 0 1 1621 1905.25)" fill="#E5AD5E"/>
<ellipse cx="11" cy="3.49179" rx="11" ry="3.49179" transform="matrix(-1 0 0 1 1450 1920.22)" fill="#E5AD5E"/>
<path d="M1343.12 1889.28L1343 1889.3C1435.67 1884.51 1649.71 1891.18 1659.03 1889.3C1706.55 1879.72 2224.56 1958.12 2243.57 1963.6C2260.2 1968.39 2533.46 1999.55 2619 1968.39C2516.03 1959.61 2296.79 1936.28 2243.57 1922.86C2177.03 1906.08 1744.57 1860.54 1637.64 1855.75C1552.16 1851.92 1405.76 1878.08 1343.12 1889.28Z" fill="#FFEAB4"/>
<path d="M2514.6 634.06H2566.89V686.642H2514.6V634.06Z" fill="white"/>
<path d="M2566.89 686.642H2619.18V739.224H2566.89V686.642Z" fill="white"/>
<rect x="2566.89" y="634.06" width="52.2885" height="52.5821" fill="#404040"/>
<rect x="2514.6" y="686.642" width="52.2885" height="52.5821" fill="#404040"/>
<path d="M2514.6 844.388H2566.89V896.97H2514.6V844.388Z" fill="white"/>
<path d="M2566.89 896.971H2619.18V949.553H2566.89V896.971Z" fill="white"/>
<rect x="2566.89" y="844.388" width="52.2885" height="52.5821" fill="#404040"/>
<rect x="2514.6" y="896.971" width="52.2885" height="52.5821" fill="#404040"/>
<path d="M2514.6 949.552H2566.89V1002.13H2514.6V949.552Z" fill="white"/>
<path d="M2566.89 1002.13H2619.18V1054.72H2566.89V1002.13Z" fill="white"/>
<rect x="2566.89" y="949.552" width="52.2885" height="52.5821" fill="#404040"/>
<rect x="2514.6" y="1002.13" width="52.2885" height="52.5821" fill="#404040"/>
<path d="M2514.6 1054.72H2566.89V1107.3H2514.6V1054.72Z" fill="white"/>
<path d="M2566.89 1107.3H2619.18V1159.88H2566.89V1107.3Z" fill="white"/>
<rect x="2566.89" y="1054.72" width="52.2885" height="52.5821" fill="#404040"/>
<rect x="2514.6" y="1107.3" width="52.2885" height="52.5821" fill="#404040"/>
<path d="M2514.6 1159.88H2566.89V1212.46H2514.6V1159.88Z" fill="white"/>
<path d="M2566.89 1212.46H2619.18V1265.04H2566.89V1212.46Z" fill="white"/>
<rect x="2566.89" y="1159.88" width="52.2885" height="52.5821" fill="#404040"/>
<rect x="2514.6" y="1212.46" width="52.2885" height="52.5821" fill="#404040"/>
<path d="M2514.6 739.224H2566.89V791.806H2514.6V739.224Z" fill="white"/>
<path d="M2566.89 791.806H2619.18V844.388H2566.89V791.806Z" fill="white"/>
<rect x="2566.89" y="739.224" width="52.2885" height="52.5821" fill="#404040"/>
<rect x="2514.6" y="791.806" width="52.2885" height="52.5821" fill="#404040"/>
<path d="M2514.6 1977.29H2566.89V2029.87H2514.6V1977.29Z" fill="white"/>
<path d="M2566.89 2029.87H2619.18V2082.46H2566.89V2029.87Z" fill="white"/>
<rect x="2566.89" y="1977.29" width="52.2885" height="52.5821" fill="#404040"/>
<rect x="2514.6" y="2029.87" width="52.2885" height="52.5821" fill="#404040"/>
<path d="M2514.6 1872.13H2566.89V1924.71H2514.6V1872.13Z" fill="white"/>
<path d="M2566.89 1924.71H2619.18V1977.29H2566.89V1924.71Z" fill="white"/>
<rect x="2566.89" y="1872.13" width="52.2885" height="52.5821" fill="#404040"/>
<rect x="2514.6" y="1924.71" width="52.2885" height="52.5821" fill="#404040"/>
<path d="M2514.6 1766.96H2566.89V1819.55H2514.6V1766.96Z" fill="white"/>
<path d="M2566.89 1819.55H2619.18V1872.13H2566.89V1819.55Z" fill="white"/>
<rect x="2566.89" y="1766.96" width="52.2885" height="52.5821" fill="#404040"/>
<rect x="2514.6" y="1819.55" width="52.2885" height="52.5821" fill="#404040"/>
<path d="M2514.6 1661.8H2566.89V1714.38H2514.6V1661.8Z" fill="white"/>
<path d="M2566.89 1714.38H2619.18V1766.96H2566.89V1714.38Z" fill="white"/>
<rect x="2566.89" y="1661.8" width="52.2885" height="52.5821" fill="#404040"/>
<rect x="2514.6" y="1714.38" width="52.2885" height="52.5821" fill="#404040"/>
<path d="M2514.6 1556.64H2566.89V1609.22H2514.6V1556.64Z" fill="white"/>
<path d="M2566.89 1609.22H2619.18V1661.8H2566.89V1609.22Z" fill="white"/>
<rect x="2566.89" y="1556.64" width="52.2885" height="52.5821" fill="#404040"/>
<rect x="2514.6" y="1609.22" width="52.2885" height="52.5821" fill="#404040"/>
<path d="M2514.6 1451.47H2566.89V1504.05H2514.6V1451.47Z" fill="white"/>
<path d="M2566.89 1504.05H2619.18V1556.64H2566.89V1504.05Z" fill="white"/>
<rect x="2566.89" y="1451.47" width="52.2885" height="52.5821" fill="#404040"/>
<rect x="2514.6" y="1504.05" width="52.2885" height="52.5821" fill="#404040"/>
<rect x="2515" y="1211.88" width="104" height="293.31" fill="#E01B24"/>
<path d="M2590 1463.32C2590 1465.13 2589.79 1466.54 2589.36 1467.56C2588.93 1468.52 2588.45 1469.18 2587.92 1469.56C2587.39 1469.93 2586.91 1470.14 2586.48 1470.2C2586.05 1470.25 2585.84 1470.28 2585.84 1470.28C2585.84 1470.28 2585.12 1470.41 2583.68 1470.68C2582.19 1470.89 2580.27 1471.18 2577.92 1471.56C2575.57 1471.93 2573.04 1472.36 2570.32 1472.84C2567.55 1473.26 2564.88 1473.69 2562.32 1474.12C2559.71 1474.49 2557.44 1474.84 2555.52 1475.16C2553.55 1475.48 2552.21 1475.72 2551.52 1475.88C2550.45 1476.09 2549.6 1476.04 2548.96 1475.72C2548.27 1475.34 2547.76 1474.89 2547.44 1474.36C2547.07 1473.77 2546.83 1473.26 2546.72 1472.84C2546.56 1472.36 2546.48 1472.12 2546.48 1472.12C2546.48 1472.12 2546.37 1471.45 2546.16 1470.12C2545.89 1468.73 2545.57 1467.02 2545.2 1465C2544.83 1462.97 2544.48 1460.89 2544.16 1458.76C2543.79 1456.62 2543.49 1454.76 2543.28 1453.16C2543.07 1451.56 2543.15 1450.3 2543.52 1449.4C2543.84 1448.49 2544.27 1447.82 2544.8 1447.4C2545.33 1446.97 2545.84 1446.7 2546.32 1446.6C2546.75 1446.49 2546.96 1446.44 2546.96 1446.44C2546.96 1446.44 2547.39 1446.38 2548.24 1446.28C2549.09 1446.12 2550.11 1445.96 2551.28 1445.8C2552.4 1445.64 2553.47 1445.53 2554.48 1445.48C2555.97 1445.37 2557.2 1445.72 2558.16 1446.52C2559.12 1447.32 2559.73 1449.05 2560 1451.72C2560.16 1453.48 2559.97 1454.73 2559.44 1455.48C2558.91 1456.22 2558.35 1456.68 2557.76 1456.84C2557.17 1456.94 2556.88 1457 2556.88 1457L2551.6 1457.48L2552.08 1462.52L2565.84 1459.72C2565.84 1459.72 2565.84 1459.37 2565.84 1458.68C2565.84 1457.98 2565.92 1457.18 2566.08 1456.28C2566.19 1455.37 2566.45 1454.54 2566.88 1453.8C2567.31 1453.05 2567.97 1452.6 2568.88 1452.44C2569.73 1452.28 2570.43 1452.52 2570.96 1453.16C2571.49 1453.74 2571.87 1454.46 2572.08 1455.32C2572.29 1456.12 2572.45 1456.86 2572.56 1457.56C2572.61 1458.2 2572.64 1458.52 2572.64 1458.52C2572.64 1458.52 2573.79 1458.36 2576.08 1458.04C2578.32 1457.72 2581.09 1457.37 2584.4 1457C2586.05 1456.78 2587.28 1457 2588.08 1457.64C2588.88 1458.22 2589.41 1458.97 2589.68 1459.88C2589.95 1460.73 2590.05 1461.53 2590 1462.28C2590 1462.97 2590 1463.32 2590 1463.32ZM2585.92 1438.01C2584.11 1438.17 2581.84 1438.27 2579.12 1438.33C2576.35 1438.38 2573.39 1438.41 2570.24 1438.41C2567.09 1438.41 2564.05 1438.38 2561.12 1438.33C2558.13 1438.22 2555.49 1438.11 2553.2 1438.01C2550.91 1437.9 2549.25 1437.79 2548.24 1437.69C2546.96 1437.53 2546 1437.07 2545.36 1436.33C2544.67 1435.58 2544.19 1434.75 2543.92 1433.85C2543.65 1432.89 2543.52 1432.09 2543.52 1431.45C2543.47 1430.75 2543.44 1430.41 2543.44 1430.41C2543.44 1430.41 2543.49 1430.09 2543.6 1429.45C2543.65 1428.75 2543.79 1428.01 2544 1427.21C2544.21 1426.41 2544.59 1425.85 2545.12 1425.53C2546.19 1424.83 2547.23 1424.51 2548.24 1424.57C2549.2 1424.57 2550.45 1424.62 2552 1424.73C2556 1425.05 2559.92 1425.23 2563.76 1425.29C2567.6 1425.34 2571.09 1425.34 2574.24 1425.29C2577.39 1425.23 2579.89 1425.18 2581.76 1425.13C2583.63 1425.02 2584.56 1424.97 2584.56 1424.97C2584.56 1424.97 2584.85 1424.99 2585.44 1425.05C2585.97 1425.05 2586.59 1425.21 2587.28 1425.53C2587.97 1425.85 2588.61 1426.46 2589.2 1427.37C2589.73 1428.27 2590 1429.61 2590 1431.37C2590 1433.13 2589.81 1434.49 2589.44 1435.45C2589.01 1436.35 2588.53 1436.99 2588 1437.37C2587.41 1437.69 2586.93 1437.87 2586.56 1437.93C2586.13 1437.98 2585.92 1438.01 2585.92 1438.01ZM2590 1407.33C2590 1409.25 2589.79 1410.72 2589.36 1411.73C2588.88 1412.69 2588.35 1413.39 2587.76 1413.81C2587.12 1414.19 2586.59 1414.4 2586.16 1414.45C2585.68 1414.45 2585.44 1414.45 2585.44 1414.45C2585.44 1414.45 2584.64 1414.53 2583.04 1414.69C2581.44 1414.85 2579.39 1415.07 2576.88 1415.33C2574.32 1415.6 2571.6 1415.89 2568.72 1416.21C2565.79 1416.48 2562.99 1416.77 2560.32 1417.09C2557.6 1417.36 2555.31 1417.57 2553.44 1417.73C2551.52 1417.89 2550.32 1418 2549.84 1418.05C2548.45 1418.11 2547.25 1417.81 2546.24 1417.17C2545.17 1416.48 2544.56 1414.83 2544.4 1412.21C2544.29 1410.45 2544.56 1409.04 2545.2 1407.97C2545.84 1406.91 2546.51 1406.13 2547.2 1405.65C2547.84 1405.17 2548.16 1404.93 2548.16 1404.93L2566.4 1397.41L2571.92 1394.45L2556.72 1396.29C2556.72 1396.29 2555.84 1396.29 2554.08 1396.29C2552.32 1396.24 2550.21 1396.13 2547.76 1395.97C2546.53 1395.87 2545.6 1395.47 2544.96 1394.77C2544.32 1394.08 2543.87 1393.31 2543.6 1392.45C2543.33 1391.55 2543.2 1390.77 2543.2 1390.13C2543.15 1389.44 2543.12 1389.09 2543.12 1389.09C2543.12 1389.09 2543.15 1388.8 2543.2 1388.21C2543.25 1387.57 2543.49 1386.85 2543.92 1386.05C2544.29 1385.25 2544.99 1384.56 2546 1383.97C2546.96 1383.33 2548.37 1383.04 2550.24 1383.09C2552.53 1383.15 2555.15 1383.07 2558.08 1382.85C2560.96 1382.64 2563.92 1382.37 2566.96 1382.05C2570 1381.68 2572.85 1381.33 2575.52 1381.01C2578.13 1380.64 2580.32 1380.32 2582.08 1380.05C2583.84 1379.73 2584.93 1379.55 2585.36 1379.49C2586 1379.39 2586.77 1379.36 2587.68 1379.41C2588.59 1379.47 2589.39 1379.89 2590.08 1380.69C2590.77 1381.44 2591.15 1382.85 2591.2 1384.93C2591.2 1387.01 2590.96 1388.56 2590.48 1389.57C2590 1390.59 2589.52 1391.28 2589.04 1391.65C2588.51 1391.97 2588.24 1392.13 2588.24 1392.13L2566.72 1404.13C2566.72 1404.13 2567.25 1404.03 2568.32 1403.81C2569.39 1403.6 2570.77 1403.36 2572.48 1403.09C2574.19 1402.77 2576.03 1402.48 2578 1402.21C2579.97 1401.89 2581.87 1401.65 2583.68 1401.49C2585.49 1401.33 2586.85 1401.55 2587.76 1402.13C2588.61 1402.67 2589.2 1403.36 2589.52 1404.21C2589.84 1405.01 2590 1405.73 2590 1406.37C2590 1407.01 2590 1407.33 2590 1407.33ZM2585.92 1373.01C2584.11 1373.17 2581.84 1373.27 2579.12 1373.33C2576.35 1373.38 2573.39 1373.41 2570.24 1373.41C2567.09 1373.41 2564.05 1373.38 2561.12 1373.33C2558.13 1373.22 2555.49 1373.11 2553.2 1373.01C2550.91 1372.9 2549.25 1372.79 2548.24 1372.69C2546.96 1372.53 2546 1372.07 2545.36 1371.33C2544.67 1370.58 2544.19 1369.75 2543.92 1368.85C2543.65 1367.89 2543.52 1367.09 2543.52 1366.45C2543.47 1365.75 2543.44 1365.41 2543.44 1365.41C2543.44 1365.41 2543.49 1365.09 2543.6 1364.45C2543.65 1363.75 2543.79 1363.01 2544 1362.21C2544.21 1361.41 2544.59 1360.85 2545.12 1360.53C2546.19 1359.83 2547.23 1359.51 2548.24 1359.57C2549.2 1359.57 2550.45 1359.62 2552 1359.73C2556 1360.05 2559.92 1360.23 2563.76 1360.29C2567.6 1360.34 2571.09 1360.34 2574.24 1360.29C2577.39 1360.23 2579.89 1360.18 2581.76 1360.13C2583.63 1360.02 2584.56 1359.97 2584.56 1359.97C2584.56 1359.97 2584.85 1359.99 2585.44 1360.05C2585.97 1360.05 2586.59 1360.21 2587.28 1360.53C2587.97 1360.85 2588.61 1361.46 2589.2 1362.37C2589.73 1363.27 2590 1364.61 2590 1366.37C2590 1368.13 2589.81 1369.49 2589.44 1370.45C2589.01 1371.35 2588.53 1371.99 2588 1372.37C2587.41 1372.69 2586.93 1372.87 2586.56 1372.93C2586.13 1372.98 2585.92 1373.01 2585.92 1373.01ZM2558.08 1327.69C2558.08 1329.51 2557.87 1330.89 2557.44 1331.85C2556.96 1332.81 2556.43 1333.51 2555.84 1333.93C2555.25 1334.31 2554.72 1334.52 2554.24 1334.57C2553.71 1334.63 2553.39 1334.65 2553.28 1334.65C2553.01 1334.65 2552.59 1334.76 2552 1334.97C2551.36 1335.13 2551.04 1335.67 2551.04 1336.57C2551.04 1338.07 2551.49 1339.4 2552.4 1340.57C2553.31 1341.69 2554.64 1342.31 2556.4 1342.41C2558.16 1342.52 2559.68 1342.07 2560.96 1341.05C2562.24 1340.04 2562.91 1338.04 2562.96 1335.05C2562.96 1333.56 2563.17 1331.99 2563.6 1330.33C2564.03 1328.68 2564.72 1327.13 2565.68 1325.69C2566.59 1324.2 2567.84 1323.03 2569.44 1322.17C2570.99 1321.27 2572.93 1320.81 2575.28 1320.81C2579.97 1320.87 2583.6 1322.12 2586.16 1324.57C2588.72 1327.03 2590 1331.11 2590 1336.81C2590 1340.6 2589.55 1343.64 2588.64 1345.93C2587.68 1348.23 2586.56 1349.91 2585.28 1350.97C2584 1351.99 2582.85 1352.52 2581.84 1352.57C2580.83 1352.63 2579.84 1352.57 2578.88 1352.41C2577.92 1352.2 2577.09 1351.64 2576.4 1350.73C2575.71 1349.77 2575.28 1348.25 2575.12 1346.17C2574.96 1344.04 2575.15 1342.52 2575.68 1341.61C2576.16 1340.71 2576.72 1340.15 2577.36 1339.93C2578 1339.67 2578.4 1339.53 2578.56 1339.53C2578.72 1339.53 2579.12 1339.48 2579.76 1339.37C2580.35 1339.21 2580.93 1338.95 2581.52 1338.57C2582.05 1338.15 2582.32 1337.56 2582.32 1336.81C2582.32 1335.69 2581.87 1334.73 2580.96 1333.93C2580.05 1333.13 2578.59 1332.63 2576.56 1332.41C2572.56 1332.04 2570.56 1334.04 2570.56 1338.41C2570.56 1339.48 2570.4 1340.87 2570.08 1342.57C2569.71 1344.23 2569.07 1345.88 2568.16 1347.53C2567.2 1349.19 2565.87 1350.57 2564.16 1351.69C2562.45 1352.81 2560.21 1353.35 2557.44 1353.29C2554.67 1353.24 2552.4 1352.73 2550.64 1351.77C2548.83 1350.81 2547.44 1349.56 2546.48 1348.01C2545.47 1346.41 2544.75 1344.68 2544.32 1342.81C2543.89 1340.89 2543.65 1339 2543.6 1337.13C2543.55 1334.63 2543.84 1332.23 2544.48 1329.93C2545.12 1327.59 2546.11 1325.64 2547.44 1324.09C2548.72 1322.49 2550.4 1321.59 2552.48 1321.37C2554.03 1321.21 2555.2 1321.45 2556 1322.09C2556.75 1322.68 2557.28 1323.43 2557.6 1324.33C2557.87 1325.19 2558.03 1325.96 2558.08 1326.65C2558.08 1327.35 2558.08 1327.69 2558.08 1327.69ZM2585.6 1315.45L2547.84 1316.97C2547.84 1316.97 2547.63 1316.97 2547.2 1316.97C2546.77 1316.92 2546.29 1316.73 2545.76 1316.41C2545.17 1316.09 2544.67 1315.5 2544.24 1314.65C2543.76 1313.74 2543.49 1312.44 2543.44 1310.73C2543.33 1308.44 2543.6 1306.81 2544.24 1305.85C2544.83 1304.84 2545.47 1304.22 2546.16 1304.01C2546.8 1303.74 2547.15 1303.61 2547.2 1303.61C2547.25 1303.61 2547.87 1303.58 2549.04 1303.53C2550.21 1303.48 2551.65 1303.42 2553.36 1303.37C2555.07 1303.32 2556.77 1303.26 2558.48 1303.21C2560.19 1303.16 2561.63 1303.1 2562.8 1303.05C2563.92 1303 2564.48 1302.97 2564.48 1302.97L2564 1294.49L2547.92 1295.77C2547.92 1295.77 2547.73 1295.8 2547.36 1295.85C2546.93 1295.85 2546.45 1295.74 2545.92 1295.53C2545.33 1295.26 2544.8 1294.73 2544.32 1293.93C2543.79 1293.08 2543.44 1291.82 2543.28 1290.17C2543.12 1288.46 2543.23 1287.16 2543.6 1286.25C2543.92 1285.34 2544.35 1284.68 2544.88 1284.25C2545.41 1283.82 2545.89 1283.58 2546.32 1283.53C2546.75 1283.42 2546.96 1283.37 2546.96 1283.37L2584.32 1280.89C2584.32 1280.89 2584.61 1280.86 2585.2 1280.81C2585.73 1280.76 2586.4 1280.84 2587.2 1281.05C2587.95 1281.26 2588.61 1281.8 2589.2 1282.65C2589.73 1283.45 2590 1284.7 2590 1286.41C2590 1288.12 2589.76 1289.45 2589.28 1290.41C2588.8 1291.37 2588.27 1292.06 2587.68 1292.49C2587.04 1292.92 2586.48 1293.18 2586 1293.29C2585.52 1293.4 2585.28 1293.45 2585.28 1293.45L2569.92 1294.01L2570.4 1302.73L2586.08 1302.01C2586.08 1302.01 2586.29 1302.04 2586.72 1302.09C2587.09 1302.14 2587.55 1302.36 2588.08 1302.73C2588.56 1303.1 2589.01 1303.74 2589.44 1304.65C2589.81 1305.56 2590 1306.89 2590 1308.65C2590 1310.41 2589.79 1311.77 2589.36 1312.73C2588.88 1313.64 2588.37 1314.28 2587.84 1314.65C2587.25 1315.02 2586.75 1315.26 2586.32 1315.37C2585.84 1315.42 2585.6 1315.45 2585.6 1315.45ZM2549.68 1242.5L2571.92 1242.02C2571.92 1242.02 2571.95 1242.02 2572 1242.02C2572.11 1242.02 2572.4 1242.13 2572.88 1242.34C2573.31 1242.56 2573.73 1243.12 2574.16 1244.02C2574.59 1244.88 2574.83 1246.29 2574.88 1248.26C2574.88 1248.37 2574.88 1248.5 2574.88 1248.66C2574.88 1250.69 2574.56 1252.18 2573.92 1253.14C2573.23 1254.1 2572.56 1254.74 2571.92 1255.06C2571.23 1255.33 2570.88 1255.46 2570.88 1255.46H2570.96L2548.24 1255.86C2548.24 1255.86 2548.21 1255.86 2548.16 1255.86C2548 1255.86 2547.71 1255.78 2547.28 1255.62C2546.8 1255.41 2546.35 1254.93 2545.92 1254.18C2545.49 1253.38 2545.28 1252.13 2545.28 1250.42C2545.28 1250.05 2545.28 1249.68 2545.28 1249.3C2545.39 1247.06 2545.81 1245.46 2546.56 1244.5C2547.25 1243.54 2547.95 1242.98 2548.64 1242.82C2549.28 1242.61 2549.63 1242.5 2549.68 1242.5ZM2578.72 1248.82C2578.72 1248.66 2578.72 1248.53 2578.72 1248.42C2578.72 1245.49 2579.17 1243.6 2580.08 1242.74C2580.93 1241.84 2582.43 1241.28 2584.56 1241.06C2584.99 1241.01 2585.36 1240.98 2585.68 1240.98C2587.39 1240.98 2588.53 1241.52 2589.12 1242.58C2589.71 1243.65 2590 1245.46 2590 1248.02C2590 1249.89 2589.71 1251.28 2589.12 1252.18C2588.48 1253.09 2587.63 1253.7 2586.56 1254.02C2585.44 1254.29 2584.16 1254.45 2582.72 1254.5C2582.67 1254.5 2582.59 1254.5 2582.48 1254.5C2581.31 1254.5 2580.45 1254.21 2579.92 1253.62C2579.39 1253.04 2579.07 1252.37 2578.96 1251.62C2578.8 1250.82 2578.72 1250.13 2578.72 1249.54C2578.72 1249.38 2578.72 1249.22 2578.72 1249.06C2578.72 1248.9 2578.72 1248.82 2578.72 1248.82Z" fill="white"/>
</svg>
