<svg width="2727" height="2557" viewBox="0 0 2727 2557" fill="none" xmlns="http://www.w3.org/2000/svg">
<path d="M50 1972.33V1633.94C172.434 1601.94 439.726 1591.1 583.179 1633.94C768.015 1689.14 1583.42 1750.93 1644.8 1756.34C1699.3 1761.14 2313.84 1777.14 2614 1756.34V1869.14V1974.73C2303.57 1943.53 1670.86 1855.49 1595.04 1859.54C1504.99 1864.34 1347.53 1887.81 1256.17 1902.74C1182.71 1914.73 420.461 1952.33 50 1972.33Z" fill="#45BAF1" fill-opacity="0.36"/>
<path d="M0 587.467L639.345 1946.01L453.959 1946.01L0 587.467Z" fill="#78D6FF" fill-opacity="0.34"/>
<path d="M142.496 534.544L1573.41 1866.95L1242.86 1925.15L142.496 534.544Z" fill="#78D6FF" fill-opacity="0.34"/>
<path d="M350.5 541.733L2617.5 2014.73L2128 2138.73L350.5 541.733Z" fill="#78D6FF" fill-opacity="0.34"/>
<path d="M55 556.233L1050.52 1927.51L870.469 1927.51L55 556.233Z" fill="#78D6FF" fill-opacity="0.34"/>
<path d="M561.5 538.733L2615 1515.73L2615 1745.73L561.5 538.733Z" fill="#78D6FF" fill-opacity="0.34"/>
<path d="M52 2139.73V1970.39C454.911 1927.7 1054.51 1939.87 1422.73 1879.52C1800.72 1817.56 2288.09 1970.39 2619 1970.39V2139.73H52Z" fill="#F9D984"/>
<ellipse cx="1072" cy="1981.73" rx="12" ry="5" fill="#E5AD5E"/>
<ellipse cx="815" cy="2005.73" rx="12" ry="5" fill="#E5AD5E"/>
<path d="M1241.29 2024.55C1165.15 2028.91 1016.04 2071.82 951 2092.73H2619V1972.73C2541.27 2007.28 2566.65 2040.91 2338.22 2057.28C2290.73 2060.68 1928.96 2016.37 1874.23 2016.37C1819.5 2016.37 1631.52 2043.64 1576.8 2043.64C1545.5 2043.64 1336.47 2019.1 1241.29 2024.55Z" fill="#FBA55C"/>
<ellipse cx="1112" cy="1969.73" rx="19" ry="7" fill="#E5AD5E"/>
<ellipse cx="1068" cy="1957.73" rx="13" ry="5" fill="#E5AD5E"/>
<ellipse cx="592.5" cy="1996.23" rx="12.5" ry="4.5" fill="#E5AD5E"/>
<ellipse cx="393" cy="2030.73" rx="13" ry="4" fill="#E5AD5E"/>
<ellipse cx="10" cy="4.5" rx="10" ry="4.5" transform="matrix(-1 0 0 1 1445 1943.73)" fill="#E5AD5E"/>
<ellipse cx="10.5" cy="3.5" rx="10.5" ry="3.5" transform="matrix(-1 0 0 1 1414 1933.73)" fill="#E5AD5E"/>
<ellipse cx="10.5" cy="5" rx="10.5" ry="5" transform="matrix(-1 0 0 1 1404 1956.73)" fill="#E5AD5E"/>
<ellipse cx="13" cy="4" rx="13" ry="4" transform="matrix(-1 0 0 1 1290 1937.73)" fill="#E5AD5E"/>
<ellipse cx="10.5" cy="4" rx="10.5" ry="4" transform="matrix(-1 0 0 1 1561 1986.73)" fill="#E5AD5E"/>
<ellipse cx="10.5" cy="3.5" rx="10.5" ry="3.5" transform="matrix(-1 0 0 1 1832 1905.73)" fill="#E5AD5E"/>
<ellipse cx="10.5" cy="5" rx="10.5" ry="5" transform="matrix(-1 0 0 1 1770 1956.73)" fill="#E5AD5E"/>
<ellipse cx="17" cy="7.5" rx="17" ry="7.5" transform="matrix(-1 0 0 1 1992 1956.73)" fill="#E5AD5E"/>
<ellipse cx="16.5" cy="7" rx="16.5" ry="7" transform="matrix(-1 0 0 1 870 1976.73)" fill="#E5AD5E"/>
<ellipse cx="4.5" cy="1.5" rx="4.5" ry="1.5" transform="matrix(-1 0 0 1 1630 1933.73)" fill="#E5AD5E"/>
<ellipse cx="10.5" cy="3.5" rx="10.5" ry="3.5" transform="matrix(-1 0 0 1 1604 1933.73)" fill="#E5AD5E"/>
<ellipse cx="10.5" cy="4.5" rx="10.5" ry="4.5" transform="matrix(-1 0 0 1 1651 1942.73)" fill="#E5AD5E"/>
<ellipse cx="16.5" cy="6.5" rx="16.5" ry="6.5" transform="matrix(-1 0 0 1 1621 1909.73)" fill="#E5AD5E"/>
<ellipse cx="11" cy="3.5" rx="11" ry="3.5" transform="matrix(-1 0 0 1 1450 1924.73)" fill="#E5AD5E"/>
<path d="M1343.12 1893.73L1343 1893.75C1435.67 1888.94 1649.71 1895.63 1659.03 1893.75C1706.55 1884.14 2224.56 1962.73 2243.57 1968.22C2260.2 1973.02 2533.46 2004.25 2619 1973.02C2516.03 1964.22 2296.79 1940.83 2243.57 1927.38C2177.03 1910.56 1744.57 1864.92 1637.64 1860.11C1552.16 1856.27 1405.76 1882.5 1343.12 1893.73Z" fill="#FFEAB4"/>
<path d="M2514.6 635.552H2566.89V688.257H2514.6V635.552Z" fill="white"/>
<path d="M2566.89 688.257H2619.18V740.963H2566.89V688.257Z" fill="white"/>
<rect x="2566.89" y="635.552" width="52.2885" height="52.7058" fill="#404040"/>
<rect x="2514.6" y="688.257" width="52.2885" height="52.7058" fill="#404040"/>
<path d="M2514.6 846.374H2566.89V899.08H2514.6V846.374Z" fill="white"/>
<path d="M2566.89 899.081H2619.18V951.786H2566.89V899.081Z" fill="white"/>
<rect x="2566.89" y="846.374" width="52.2885" height="52.7058" fill="#404040"/>
<rect x="2514.6" y="899.081" width="52.2885" height="52.7058" fill="#404040"/>
<path d="M2514.6 951.786H2566.89V1004.49H2514.6V951.786Z" fill="white"/>
<path d="M2566.89 1004.49H2619.18V1057.2H2566.89V1004.49Z" fill="white"/>
<rect x="2566.89" y="951.786" width="52.2885" height="52.7058" fill="#404040"/>
<rect x="2514.6" y="1004.49" width="52.2885" height="52.7058" fill="#404040"/>
<path d="M2514.6 1057.2H2566.89V1109.9H2514.6V1057.2Z" fill="white"/>
<path d="M2566.89 1109.9H2619.18V1162.61H2566.89V1109.9Z" fill="white"/>
<rect x="2566.89" y="1057.2" width="52.2885" height="52.7058" fill="#404040"/>
<rect x="2514.6" y="1109.9" width="52.2885" height="52.7058" fill="#404040"/>
<path d="M2514.6 1162.61H2566.89V1215.32H2514.6V1162.61Z" fill="white"/>
<path d="M2566.89 1215.31H2619.18V1268.02H2566.89V1215.31Z" fill="white"/>
<rect x="2566.89" y="1162.61" width="52.2885" height="52.7058" fill="#404040"/>
<rect x="2514.6" y="1215.31" width="52.2885" height="52.7058" fill="#404040"/>
<path d="M2514.6 740.963H2566.89V793.669H2514.6V740.963Z" fill="white"/>
<path d="M2566.89 793.669H2619.18V846.375H2566.89V793.669Z" fill="white"/>
<rect x="2566.89" y="740.963" width="52.2885" height="52.7058" fill="#404040"/>
<rect x="2514.6" y="793.669" width="52.2885" height="52.7058" fill="#404040"/>
<path d="M2514.6 1981.94H2566.89V2034.65H2514.6V1981.94Z" fill="white"/>
<path d="M2566.89 2034.65H2619.18V2087.36H2566.89V2034.65Z" fill="white"/>
<rect x="2566.89" y="1981.94" width="52.2885" height="52.7058" fill="#404040"/>
<rect x="2514.6" y="2034.65" width="52.2885" height="52.7058" fill="#404040"/>
<path d="M2514.6 1876.53H2566.89V1929.24H2514.6V1876.53Z" fill="white"/>
<path d="M2566.89 1929.24H2619.18V1981.94H2566.89V1929.24Z" fill="white"/>
<rect x="2566.89" y="1876.53" width="52.2885" height="52.7058" fill="#404040"/>
<rect x="2514.6" y="1929.24" width="52.2885" height="52.7058" fill="#404040"/>
<path d="M2514.6 1771.12H2566.89V1823.83H2514.6V1771.12Z" fill="white"/>
<path d="M2566.89 1823.83H2619.18V1876.53H2566.89V1823.83Z" fill="white"/>
<rect x="2566.89" y="1771.12" width="52.2885" height="52.7058" fill="#404040"/>
<rect x="2514.6" y="1823.83" width="52.2885" height="52.7058" fill="#404040"/>
<path d="M2514.6 1665.71H2566.89V1718.42H2514.6V1665.71Z" fill="white"/>
<path d="M2566.89 1718.42H2619.18V1771.12H2566.89V1718.42Z" fill="white"/>
<rect x="2566.89" y="1665.71" width="52.2885" height="52.7058" fill="#404040"/>
<rect x="2514.6" y="1718.42" width="52.2885" height="52.7058" fill="#404040"/>
<path d="M2514.6 1560.3H2566.89V1613H2514.6V1560.3Z" fill="white"/>
<path d="M2566.89 1613H2619.18V1665.71H2566.89V1613Z" fill="white"/>
<rect x="2566.89" y="1560.3" width="52.2885" height="52.7058" fill="#404040"/>
<rect x="2514.6" y="1613" width="52.2885" height="52.7058" fill="#404040"/>
<path d="M2514.6 1454.89H2566.89V1507.59H2514.6V1454.89Z" fill="white"/>
<path d="M2566.89 1507.59H2619.18V1560.3H2566.89V1507.59Z" fill="white"/>
<rect x="2566.89" y="1454.89" width="52.2885" height="52.7058" fill="#404040"/>
<rect x="2514.6" y="1507.59" width="52.2885" height="52.7058" fill="#404040"/>
<rect x="2515" y="1214.73" width="104" height="294" fill="#E01B24"/>
<path d="M2590 1466.51C2590 1468.33 2589.79 1469.74 2589.36 1470.75C2588.93 1471.71 2588.45 1472.38 2587.92 1472.75C2587.39 1473.13 2586.91 1473.34 2586.48 1473.39C2586.05 1473.45 2585.84 1473.47 2585.84 1473.47C2585.84 1473.47 2585.12 1473.61 2583.68 1473.87C2582.19 1474.09 2580.27 1474.38 2577.92 1474.75C2575.57 1475.13 2573.04 1475.55 2570.32 1476.03C2567.55 1476.46 2564.88 1476.89 2562.32 1477.31C2559.71 1477.69 2557.44 1478.03 2555.52 1478.35C2553.55 1478.67 2552.21 1478.91 2551.52 1479.07C2550.45 1479.29 2549.6 1479.23 2548.96 1478.91C2548.27 1478.54 2547.76 1478.09 2547.44 1477.55C2547.07 1476.97 2546.83 1476.46 2546.72 1476.03C2546.56 1475.55 2546.48 1475.31 2546.48 1475.31C2546.48 1475.31 2546.37 1474.65 2546.16 1473.31C2545.89 1471.93 2545.57 1470.22 2545.2 1468.19C2544.83 1466.17 2544.48 1464.09 2544.16 1461.95C2543.79 1459.82 2543.49 1457.95 2543.28 1456.35C2543.07 1454.75 2543.15 1453.5 2543.52 1452.59C2543.84 1451.69 2544.27 1451.02 2544.8 1450.59C2545.33 1450.17 2545.84 1449.9 2546.32 1449.79C2546.75 1449.69 2546.96 1449.63 2546.96 1449.63C2546.96 1449.63 2547.39 1449.58 2548.24 1449.47C2549.09 1449.31 2550.11 1449.15 2551.28 1448.99C2552.4 1448.83 2553.47 1448.73 2554.48 1448.67C2555.97 1448.57 2557.2 1448.91 2558.16 1449.71C2559.12 1450.51 2559.73 1452.25 2560 1454.91C2560.16 1456.67 2559.97 1457.93 2559.44 1458.67C2558.91 1459.42 2558.35 1459.87 2557.76 1460.03C2557.17 1460.14 2556.88 1460.19 2556.88 1460.19L2551.6 1460.67L2552.08 1465.71L2565.84 1462.91C2565.84 1462.91 2565.84 1462.57 2565.84 1461.87C2565.84 1461.18 2565.92 1460.38 2566.08 1459.47C2566.19 1458.57 2566.45 1457.74 2566.88 1456.99C2567.31 1456.25 2567.97 1455.79 2568.88 1455.63C2569.73 1455.47 2570.43 1455.71 2570.96 1456.35C2571.49 1456.94 2571.87 1457.66 2572.08 1458.51C2572.29 1459.31 2572.45 1460.06 2572.56 1460.75C2572.61 1461.39 2572.64 1461.71 2572.64 1461.71C2572.64 1461.71 2573.79 1461.55 2576.08 1461.23C2578.32 1460.91 2581.09 1460.57 2584.4 1460.19C2586.05 1459.98 2587.28 1460.19 2588.08 1460.83C2588.88 1461.42 2589.41 1462.17 2589.68 1463.07C2589.95 1463.93 2590.05 1464.73 2590 1465.47C2590 1466.17 2590 1466.51 2590 1466.51ZM2585.92 1441.2C2584.11 1441.36 2581.84 1441.47 2579.12 1441.52C2576.35 1441.58 2573.39 1441.6 2570.24 1441.6C2567.09 1441.6 2564.05 1441.58 2561.12 1441.52C2558.13 1441.42 2555.49 1441.31 2553.2 1441.2C2550.91 1441.1 2549.25 1440.99 2548.24 1440.88C2546.96 1440.72 2546 1440.27 2545.36 1439.52C2544.67 1438.78 2544.19 1437.95 2543.92 1437.04C2543.65 1436.08 2543.52 1435.28 2543.52 1434.64C2543.47 1433.95 2543.44 1433.6 2543.44 1433.6C2543.44 1433.6 2543.49 1433.28 2543.6 1432.64C2543.65 1431.95 2543.79 1431.2 2544 1430.4C2544.21 1429.6 2544.59 1429.04 2545.12 1428.72C2546.19 1428.03 2547.23 1427.71 2548.24 1427.76C2549.2 1427.76 2550.45 1427.82 2552 1427.92C2556 1428.24 2559.92 1428.43 2563.76 1428.48C2567.6 1428.54 2571.09 1428.54 2574.24 1428.48C2577.39 1428.43 2579.89 1428.38 2581.76 1428.32C2583.63 1428.22 2584.56 1428.16 2584.56 1428.16C2584.56 1428.16 2584.85 1428.19 2585.44 1428.24C2585.97 1428.24 2586.59 1428.4 2587.28 1428.72C2587.97 1429.04 2588.61 1429.66 2589.2 1430.56C2589.73 1431.47 2590 1432.8 2590 1434.56C2590 1436.32 2589.81 1437.68 2589.44 1438.64C2589.01 1439.55 2588.53 1440.19 2588 1440.56C2587.41 1440.88 2586.93 1441.07 2586.56 1441.12C2586.13 1441.18 2585.92 1441.2 2585.92 1441.2ZM2590 1410.53C2590 1412.45 2589.79 1413.92 2589.36 1414.93C2588.88 1415.89 2588.35 1416.58 2587.76 1417.01C2587.12 1417.38 2586.59 1417.6 2586.16 1417.65C2585.68 1417.65 2585.44 1417.65 2585.44 1417.65C2585.44 1417.65 2584.64 1417.73 2583.04 1417.89C2581.44 1418.05 2579.39 1418.26 2576.88 1418.53C2574.32 1418.8 2571.6 1419.09 2568.72 1419.41C2565.79 1419.68 2562.99 1419.97 2560.32 1420.29C2557.6 1420.56 2555.31 1420.77 2553.44 1420.93C2551.52 1421.09 2550.32 1421.2 2549.84 1421.25C2548.45 1421.3 2547.25 1421.01 2546.24 1420.37C2545.17 1419.68 2544.56 1418.02 2544.4 1415.41C2544.29 1413.65 2544.56 1412.24 2545.2 1411.17C2545.84 1410.1 2546.51 1409.33 2547.2 1408.85C2547.84 1408.37 2548.16 1408.13 2548.16 1408.13L2566.4 1400.61L2571.92 1397.65L2556.72 1399.49C2556.72 1399.49 2555.84 1399.49 2554.08 1399.49C2552.32 1399.44 2550.21 1399.33 2547.76 1399.17C2546.53 1399.06 2545.6 1398.66 2544.96 1397.97C2544.32 1397.28 2543.87 1396.5 2543.6 1395.65C2543.33 1394.74 2543.2 1393.97 2543.2 1393.33C2543.15 1392.64 2543.12 1392.29 2543.12 1392.29C2543.12 1392.29 2543.15 1392 2543.2 1391.41C2543.25 1390.77 2543.49 1390.05 2543.92 1389.25C2544.29 1388.45 2544.99 1387.76 2546 1387.17C2546.96 1386.53 2548.37 1386.24 2550.24 1386.29C2552.53 1386.34 2555.15 1386.26 2558.08 1386.05C2560.96 1385.84 2563.92 1385.57 2566.96 1385.25C2570 1384.88 2572.85 1384.53 2575.52 1384.21C2578.13 1383.84 2580.32 1383.52 2582.08 1383.25C2583.84 1382.93 2584.93 1382.74 2585.36 1382.69C2586 1382.58 2586.77 1382.56 2587.68 1382.61C2588.59 1382.66 2589.39 1383.09 2590.08 1383.89C2590.77 1384.64 2591.15 1386.05 2591.2 1388.13C2591.2 1390.21 2590.96 1391.76 2590.48 1392.77C2590 1393.78 2589.52 1394.48 2589.04 1394.85C2588.51 1395.17 2588.24 1395.33 2588.24 1395.33L2566.72 1407.33C2566.72 1407.33 2567.25 1407.22 2568.32 1407.01C2569.39 1406.8 2570.77 1406.56 2572.48 1406.29C2574.19 1405.97 2576.03 1405.68 2578 1405.41C2579.97 1405.09 2581.87 1404.85 2583.68 1404.69C2585.49 1404.53 2586.85 1404.74 2587.76 1405.33C2588.61 1405.86 2589.2 1406.56 2589.52 1407.41C2589.84 1408.21 2590 1408.93 2590 1409.57C2590 1410.21 2590 1410.53 2590 1410.53ZM2585.92 1376.2C2584.11 1376.36 2581.84 1376.47 2579.12 1376.52C2576.35 1376.58 2573.39 1376.6 2570.24 1376.6C2567.09 1376.6 2564.05 1376.58 2561.12 1376.52C2558.13 1376.42 2555.49 1376.31 2553.2 1376.2C2550.91 1376.1 2549.25 1375.99 2548.24 1375.88C2546.96 1375.72 2546 1375.27 2545.36 1374.52C2544.67 1373.78 2544.19 1372.95 2543.92 1372.04C2543.65 1371.08 2543.52 1370.28 2543.52 1369.64C2543.47 1368.95 2543.44 1368.6 2543.44 1368.6C2543.44 1368.6 2543.49 1368.28 2543.6 1367.64C2543.65 1366.95 2543.79 1366.2 2544 1365.4C2544.21 1364.6 2544.59 1364.04 2545.12 1363.72C2546.19 1363.03 2547.23 1362.71 2548.24 1362.76C2549.2 1362.76 2550.45 1362.82 2552 1362.92C2556 1363.24 2559.92 1363.43 2563.76 1363.48C2567.6 1363.54 2571.09 1363.54 2574.24 1363.48C2577.39 1363.43 2579.89 1363.38 2581.76 1363.32C2583.63 1363.22 2584.56 1363.16 2584.56 1363.16C2584.56 1363.16 2584.85 1363.19 2585.44 1363.24C2585.97 1363.24 2586.59 1363.4 2587.28 1363.72C2587.97 1364.04 2588.61 1364.66 2589.2 1365.56C2589.73 1366.47 2590 1367.8 2590 1369.56C2590 1371.32 2589.81 1372.68 2589.44 1373.64C2589.01 1374.55 2588.53 1375.19 2588 1375.56C2587.41 1375.88 2586.93 1376.07 2586.56 1376.12C2586.13 1376.18 2585.92 1376.2 2585.92 1376.2ZM2558.08 1330.89C2558.08 1332.7 2557.87 1334.09 2557.44 1335.05C2556.96 1336.01 2556.43 1336.7 2555.84 1337.13C2555.25 1337.5 2554.72 1337.72 2554.24 1337.77C2553.71 1337.82 2553.39 1337.85 2553.28 1337.85C2553.01 1337.85 2552.59 1337.96 2552 1338.17C2551.36 1338.33 2551.04 1338.86 2551.04 1339.77C2551.04 1341.26 2551.49 1342.6 2552.4 1343.77C2553.31 1344.89 2554.64 1345.5 2556.4 1345.61C2558.16 1345.72 2559.68 1345.26 2560.96 1344.25C2562.24 1343.24 2562.91 1341.24 2562.96 1338.25C2562.96 1336.76 2563.17 1335.18 2563.6 1333.53C2564.03 1331.88 2564.72 1330.33 2565.68 1328.89C2566.59 1327.4 2567.84 1326.22 2569.44 1325.37C2570.99 1324.46 2572.93 1324.01 2575.28 1324.01C2579.97 1324.06 2583.6 1325.32 2586.16 1327.77C2588.72 1330.22 2590 1334.3 2590 1340.01C2590 1343.8 2589.55 1346.84 2588.64 1349.13C2587.68 1351.42 2586.56 1353.1 2585.28 1354.17C2584 1355.18 2582.85 1355.72 2581.84 1355.77C2580.83 1355.82 2579.84 1355.77 2578.88 1355.61C2577.92 1355.4 2577.09 1354.84 2576.4 1353.93C2575.71 1352.97 2575.28 1351.45 2575.12 1349.37C2574.96 1347.24 2575.15 1345.72 2575.68 1344.81C2576.16 1343.9 2576.72 1343.34 2577.36 1343.13C2578 1342.86 2578.4 1342.73 2578.56 1342.73C2578.72 1342.73 2579.12 1342.68 2579.76 1342.57C2580.35 1342.41 2580.93 1342.14 2581.52 1341.77C2582.05 1341.34 2582.32 1340.76 2582.32 1340.01C2582.32 1338.89 2581.87 1337.93 2580.96 1337.13C2580.05 1336.33 2578.59 1335.82 2576.56 1335.61C2572.56 1335.24 2570.56 1337.24 2570.56 1341.61C2570.56 1342.68 2570.4 1344.06 2570.08 1345.77C2569.71 1347.42 2569.07 1349.08 2568.16 1350.73C2567.2 1352.38 2565.87 1353.77 2564.16 1354.89C2562.45 1356.01 2560.21 1356.54 2557.44 1356.49C2554.67 1356.44 2552.4 1355.93 2550.64 1354.97C2548.83 1354.01 2547.44 1352.76 2546.48 1351.21C2545.47 1349.61 2544.75 1347.88 2544.32 1346.01C2543.89 1344.09 2543.65 1342.2 2543.6 1340.33C2543.55 1337.82 2543.84 1335.42 2544.48 1333.13C2545.12 1330.78 2546.11 1328.84 2547.44 1327.29C2548.72 1325.69 2550.4 1324.78 2552.48 1324.57C2554.03 1324.41 2555.2 1324.65 2556 1325.29C2556.75 1325.88 2557.28 1326.62 2557.6 1327.53C2557.87 1328.38 2558.03 1329.16 2558.08 1329.85C2558.08 1330.54 2558.08 1330.89 2558.08 1330.89ZM2585.6 1318.64L2547.84 1320.16C2547.84 1320.16 2547.63 1320.16 2547.2 1320.16C2546.77 1320.11 2546.29 1319.92 2545.76 1319.6C2545.17 1319.28 2544.67 1318.7 2544.24 1317.84C2543.76 1316.94 2543.49 1315.63 2543.44 1313.92C2543.33 1311.63 2543.6 1310 2544.24 1309.04C2544.83 1308.03 2545.47 1307.42 2546.16 1307.2C2546.8 1306.94 2547.15 1306.8 2547.2 1306.8C2547.25 1306.8 2547.87 1306.78 2549.04 1306.72C2550.21 1306.67 2551.65 1306.62 2553.36 1306.56C2555.07 1306.51 2556.77 1306.46 2558.48 1306.4C2560.19 1306.35 2561.63 1306.3 2562.8 1306.24C2563.92 1306.19 2564.48 1306.16 2564.48 1306.16L2564 1297.68L2547.92 1298.96C2547.92 1298.96 2547.73 1298.99 2547.36 1299.04C2546.93 1299.04 2546.45 1298.94 2545.92 1298.72C2545.33 1298.46 2544.8 1297.92 2544.32 1297.12C2543.79 1296.27 2543.44 1295.02 2543.28 1293.36C2543.12 1291.66 2543.23 1290.35 2543.6 1289.44C2543.92 1288.54 2544.35 1287.87 2544.88 1287.44C2545.41 1287.02 2545.89 1286.78 2546.32 1286.72C2546.75 1286.62 2546.96 1286.56 2546.96 1286.56L2584.32 1284.08C2584.32 1284.08 2584.61 1284.06 2585.2 1284C2585.73 1283.95 2586.4 1284.03 2587.2 1284.24C2587.95 1284.46 2588.61 1284.99 2589.2 1285.84C2589.73 1286.64 2590 1287.9 2590 1289.6C2590 1291.31 2589.76 1292.64 2589.28 1293.6C2588.8 1294.56 2588.27 1295.26 2587.68 1295.68C2587.04 1296.11 2586.48 1296.38 2586 1296.48C2585.52 1296.59 2585.28 1296.64 2585.28 1296.64L2569.92 1297.2L2570.4 1305.92L2586.08 1305.2C2586.08 1305.2 2586.29 1305.23 2586.72 1305.28C2587.09 1305.34 2587.55 1305.55 2588.08 1305.92C2588.56 1306.3 2589.01 1306.94 2589.44 1307.84C2589.81 1308.75 2590 1310.08 2590 1311.84C2590 1313.6 2589.79 1314.96 2589.36 1315.92C2588.88 1316.83 2588.37 1317.47 2587.84 1317.84C2587.25 1318.22 2586.75 1318.46 2586.32 1318.56C2585.84 1318.62 2585.6 1318.64 2585.6 1318.64ZM2549.68 1245.7L2571.92 1245.22C2571.92 1245.22 2571.95 1245.22 2572 1245.22C2572.11 1245.22 2572.4 1245.33 2572.88 1245.54C2573.31 1245.75 2573.73 1246.31 2574.16 1247.22C2574.59 1248.07 2574.83 1249.49 2574.88 1251.46C2574.88 1251.57 2574.88 1251.7 2574.88 1251.86C2574.88 1253.89 2574.56 1255.38 2573.92 1256.34C2573.23 1257.3 2572.56 1257.94 2571.92 1258.26C2571.23 1258.53 2570.88 1258.66 2570.88 1258.66H2570.96L2548.24 1259.06C2548.24 1259.06 2548.21 1259.06 2548.16 1259.06C2548 1259.06 2547.71 1258.98 2547.28 1258.82C2546.8 1258.61 2546.35 1258.13 2545.92 1257.38C2545.49 1256.58 2545.28 1255.33 2545.28 1253.62C2545.28 1253.25 2545.28 1252.87 2545.28 1252.5C2545.39 1250.26 2545.81 1248.66 2546.56 1247.7C2547.25 1246.74 2547.95 1246.18 2548.64 1246.02C2549.28 1245.81 2549.63 1245.7 2549.68 1245.7ZM2578.72 1252.02C2578.72 1251.86 2578.72 1251.73 2578.72 1251.62C2578.72 1248.69 2579.17 1246.79 2580.08 1245.94C2580.93 1245.03 2582.43 1244.47 2584.56 1244.26C2584.99 1244.21 2585.36 1244.18 2585.68 1244.18C2587.39 1244.18 2588.53 1244.71 2589.12 1245.78C2589.71 1246.85 2590 1248.66 2590 1251.22C2590 1253.09 2589.71 1254.47 2589.12 1255.38C2588.48 1256.29 2587.63 1256.9 2586.56 1257.22C2585.44 1257.49 2584.16 1257.65 2582.72 1257.7C2582.67 1257.7 2582.59 1257.7 2582.48 1257.7C2581.31 1257.7 2580.45 1257.41 2579.92 1256.82C2579.39 1256.23 2579.07 1255.57 2578.96 1254.82C2578.8 1254.02 2578.72 1253.33 2578.72 1252.74C2578.72 1252.58 2578.72 1252.42 2578.72 1252.26C2578.72 1252.1 2578.72 1252.02 2578.72 1252.02Z" fill="white"/>
</svg>
