<svg width="90" height="90" viewBox="0 0 90 90" fill="none" xmlns="http://www.w3.org/2000/svg">
<rect y="90" width="90" height="90" rx="22" transform="rotate(-90 0 90)" fill="#404040"/>
<path d="M47.4551 70.8289C48.205 70.0787 48.6263 69.0615 48.6263 68.0009C48.6263 66.9402 48.205 65.923 47.4551 65.1729L27.6551 45.3729L47.4551 25.5729C48.1838 24.8184 48.587 23.808 48.5778 22.7592C48.5687 21.7105 48.1481 20.7072 47.4064 19.9656C46.6648 19.2239 45.6615 18.8033 44.6127 18.7942C43.564 18.785 42.5536 19.1882 41.7991 19.9169L19.1711 42.5449C18.4213 43.295 18 44.3122 18 45.3729C18 46.4335 18.4213 47.4507 19.1711 48.2009L41.7991 70.8289C42.5493 71.5787 43.5665 72 44.6271 72C45.6878 72 46.705 71.5787 47.4551 70.8289Z" fill="white"/>
</svg>
