<svg width="90" height="90" viewBox="0 0 90 90" fill="none" xmlns="http://www.w3.org/2000/svg">
<rect x="90" width="90" height="90" rx="22" transform="rotate(90 90 0)" fill="#404040"/>
<path d="M42.5449 19.1711C41.795 19.9213 41.3737 20.9385 41.3737 21.9991C41.3737 23.0598 41.795 24.077 42.5449 24.8271L62.3449 44.6271L42.5449 64.4271C41.8162 65.1816 41.413 66.192 41.4222 67.2408C41.4313 68.2895 41.8519 69.2928 42.5936 70.0344C43.3352 70.7761 44.3385 71.1967 45.3873 71.2058C46.436 71.215 47.4464 70.8118 48.2009 70.0831L70.8289 47.4551C71.5787 46.705 72 45.6878 72 44.6271C72 43.5665 71.5787 42.5493 70.8289 41.7991L48.2009 19.1711C47.4507 18.4213 46.4335 18 45.3729 18C44.3122 18 43.295 18.4213 42.5449 19.1711Z" fill="white"/>
</svg>
