<svg width="90" height="90" viewBox="0 0 90 90" fill="none" xmlns="http://www.w3.org/2000/svg">
<rect width="90" height="90" rx="22" fill="#404040"/>
<path d="M19.1711 47.4551C19.9213 48.205 20.9385 48.6263 21.9991 48.6263C23.0598 48.6263 24.077 48.205 24.8271 47.4551L44.6271 27.6551L64.4271 47.4551C65.1816 48.1838 66.192 48.587 67.2408 48.5778C68.2895 48.5687 69.2928 48.1481 70.0344 47.4064C70.7761 46.6648 71.1967 45.6615 71.2058 44.6127C71.215 43.564 70.8118 42.5536 70.0831 41.7991L47.4551 19.1711C46.705 18.4213 45.6878 18 44.6271 18C43.5665 18 42.5493 18.4213 41.7991 19.1711L19.1711 41.7991C18.4213 42.5493 18 43.5665 18 44.6271C18 45.6878 18.4213 46.705 19.1711 47.4551Z" fill="white"/>
</svg>
